<?xml version="1.0" encoding="UTF-8"?><svg xmlns="http://www.w3.org/2000/svg" viewBox="0 0 7496.16 3750"><defs><style>.d{fill:#b0aeb8;}.e{fill:#bdb9bf;}.f{fill:#3e3d4b;}.g{fill:#a4a3ac;}.h{fill:#606071;}.i{fill:#c7c2c5;}</style></defs><g id="a"/><g id="b"><g id="c"><g><path class="f" d="M7496.02,2439.95v1306.9c-6.99-.13-13.98-.38-20.98-.38-2483.89-.02-4967.78-.02-7451.66,0-6.99,0-13.99,.21-20.98,.32-3.66-6.55-2.03-13.7-2.04-20.56-.09-379.93-.08-759.85-.07-1139.78,0-3.99-.17-8,.12-11.98,.21-2.95,1.03-5.85,1.57-8.77,6.99,.11,13.99,.31,20.98,.31,170.41,.02,340.82,.01,511.23,.01,31.98,0,63.97,.02,95.95-.02,4.49,0,9-.12,13.46-.57,3.32-.33,5.55-2.57,5.81-5.89,.42-5.47,.54-10.97,.54-16.45,.03-114.89,.02-229.78,.02-344.67,0-46.96-.05-93.91,.03-140.87,.03-15.3,.69-16.02,16.08-16.03,19.32,0,19.52-.16,19.49-20.38-.08-50.45-.03-100.9,0-151.36,0-4.49,.08-8.99,.45-13.46,.33-3.96,2.72-6.35,6.73-6.8,9.42-1.04,18.69-3.02,28.28-2.95,21.49,.16,42.98-.39,64.46-.22,13.53,.1,26.93-.89,40.31-2.7,7.69-1.04,9.14-2.48,9.57-10.52,.29-5.48,0-11,.35-16.47,.44-6.76,2.32-8.39,9.38-9.07,.5-.05,1-.07,1.5-.08,23.45-.56,46.75-4.24,70.28-3.25,2.98,.13,6.04,.11,8.98-.38,26.7-4.42,53.78-2.3,80.65-4.82,27.94-2.63,55.54,4.42,83.21,7.98,1.48,.19,2.95,.53,4.41,.87,3.35,.79,5.15,3.13,5.35,6.37,.37,5.98,.22,11.98,.62,17.96,.55,8.16,2.77,11,11.17,10.82,20.54-.43,40.82,2.89,61.28,3.3,9.49,.19,18.99,.24,28.48,.35l.55,.29c4.72,3.48,10.02,2.63,15.29,2.06,4.29,5.23,2.41,11.45,2.42,17.2,.13,89.77,.08,179.55,.11,269.32,0,6.48,.28,12.95,.43,19.43-.1,6.49-.27,12.97-.27,19.46-.02,114.29-.01,228.58-.01,342.86,0,37.93-.02,75.86,.03,113.79,0,4.47,.19,8.98,.78,13.4,.46,3.47,3.26,4.86,6.51,4.94,3.2,.08,5.95-1.04,6.87-4.48,.51-1.9,.81-3.93,.8-5.89-.08-12.08,2.61-13.37,14.39-13.29,1,0,2,0,3,0,18.96-.26,19.03-.26,19.04-19.18,.04-41.42,0-82.85,.03-124.27,0-4.49-.05-8.99,.33-13.46,.43-5.1,2.54-7.31,7.4-7.72,4.47-.38,8.97-.32,13.46-.33,45.93-.13,91.86-.23,137.79-.34,18.46,.05,36.93,.3,55.39,.12,27.61-.26,24.01,3.93,24.34-24.91,.07-6.48,.04-12.97,.31-19.45,.14-3.3,1.82-5.62,5.51-5.8,2.49-.12,4.99-.18,7.47-.44,2.72-.28,4.89-1.63,5.01-4.53,.27-7.04,4.88-7.48,10.29-7.45,18.96,.1,37.93,.01,56.89,.03,7.98,0,15.97,.08,23.95,.15,3.42,.03,5.7,1.56,6.02,5.15,.43,4.91,3.17,6.98,7.93,6.84,7.97-.25,15.94-.46,23.91-.69,2.49,.18,4.99,.3,7.47,.56,9.65,1,10.68,2.02,10.98,12.1,.21,6.99,.03,13.99,.09,20.98,.03,3.49,.09,6.99,.37,10.47,.32,3.99,2.55,6.21,6.59,6.88,4.29,.71,9.46-.73,12.41,3.67,2.64,3.94,1.6,8.7,1.74,13.15,.11,3.49,.03,6.99,.03,10.49,0,46.46,0,92.92,0,139.37,0,4.5-.11,9,.19,13.48,.46,6.78,2.42,8.94,9.27,9.14,11.48,.34,22.99,.26,34.48,.21,23.25-.1,21.94-.25,21.94,22.35,0,103.41-.06,206.81,.04,310.22,.03,25.52-3.04,22.34,24.31,26.76,18.71,3.02,37.44,5.98,56.27,8.06,9.88,1.09,16.4,5.49,21.8,13.57,9.15,13.7,19.2,26.79,28.59,40.33,3.5,5.04,7.84,7.2,13.87,7.13,13.99-.17,27.99-.05,41.98-.09,1.49,0,3-.17,4.47-.43,3.34-.6,5.39-2.73,5.73-6.01,.41-3.96,.5-7.97,.51-11.96,.06-14.99-.04-29.97,.04-44.96,.09-17.24,.28-17.47,17.69-17.5,31.98-.07,63.97-.02,95.95-.03,4,0,8.01,.1,11.99-.17,6.71-.46,8.88-2.34,8.95-9.39,.19-20.98-.02-41.95-.1-62.93,0-.99-.17-2-.4-2.97-1.76-7.37-1.62-14.87-1.62-22.36-.05-352.68-.1-705.36-.18-1058.05,0-22.95-.69-21.97,22.27-21.98,47.48-.01,94.95-.1,142.43-.16,23.46,.15,46.92,.25,70.37,.51,4.89,.05,8.72-1.42,11.57-5.46,1.15-1.63,2.67-2.98,3.81-4.62,2.87-4.12,6.85-5.44,11.67-5.24,3.99,.16,7.99,0,11.98,0,68.4,0,136.81,0,205.21-.01,4.49,0,8.98-.1,13.47-.24,2.76-.08,4.67-1.32,5.32-4.2,.8-3.58,3.54-4.56,6.73-4.57,19.47-.04,38.94-.1,58.41,.03,5.01,.03,6.13,1.53,6.87,5.96,.96,5.72-2.45,13.03,3.04,16.88,4.86,3.41,11.67,1.18,17.62,1.43,3.49,.14,6.99-.01,10.48,.03,12.97,.17,26.01-.42,38.91,.69,35.79,3.1,71.5,7.2,107.29,10.33,22.52,1.97,20.03-.06,20.04,22.91,.06,141.74,.03,283.48,.04,425.22,0,4.99,.12,9.98,.16,14.97,.04,4.2,2.49,6.46,6.29,7.08,8.85,1.43,17.74,2.6,26.61,3.87,8.29,1.57,11.64,6.91,11.53,14.98-.06,4.99,.05,9.99,.05,14.98,0,153.8,0,307.6,.02,461.4,0,17.33,.47,17.81,17.47,17.84,37.47,.08,74.93,.03,112.4,.02,2.5,0,5,.05,7.49-.14,7.73-.59,9.81-2.41,10.05-10.01,.31-9.98,.11-19.97,.19-29.96,.05-6.49,.04-12.98,.38-19.46,.23-4.44,2.73-7.4,7.19-8.42,1.94-.44,3.94-.66,5.89-1.06,30.83-6.17,61.66-12.29,92.47-18.56,19.76-4.02,19.78-4.12,19.78-23.93,.01-277.64,0-555.28,0-832.92,0-3.99-.05-7.99-.19-11.98-.13-3.72-1.34-6.98-5.22-8.25-5.15-1.69-6.74-5.46-6.66-10.4,.07-4.99,.05-9.98,.21-14.97,.09-2.57,.84-5.47,3.36-6.22,9.03-2.71,8.51-9.86,8.51-16.92-.01-25.97-.02-51.93,.02-77.9,0-3.98,.15-7.98,.54-11.95,.32-3.22,2.3-5.55,5.34-6.62,2.33-.82,4.79-1.44,7.24-1.7,20.81-2.23,41.64-4.32,62.46-6.54,10.91-1.16,21.8-2.41,32.69-3.74,12.86-1.57,25.7-3.35,38.57-4.87,24.25-2.87,48.53-5.49,72.77-8.47,18.89-2.33,37.72-2.3,56.57,.22,12.84,1.72,25.7,3.37,38.56,4.89,24.25,2.86,48.51,5.69,72.78,8.36,11.88,1.3,23.8,2.21,35.71,3.3,19.84,2.29,39.68,4.56,59.52,6.9,3.46,.41,6.91,1.02,10.3,1.79,2.69,.61,4.19,2.53,4.29,5.34,.14,3.99,.27,7.98,.28,11.98,.02,25.47,0,50.94,.02,76.42,0,4-.01,7.99,.14,11.98,.1,2.5,.44,5.2,3.36,5.99,4.92,1.33,5.67,4.99,5.67,9.23,0,4.49-.04,8.99,.03,13.48,.07,4.72-.31,9.06-6.04,10.5-2.32,.58-2.76,2.76-2.87,4.74-.23,3.98-.29,7.98-.29,11.97-.02,69.42-.02,138.85,0,208.27,0,3.99,.03,7.99,.28,11.98,.17,2.71,1.61,4.96,4.52,5,11.98,.16,23.95,.16,35.93,.08,2.88-.02,4.48-1.96,4.89-4.7,.3-1.97,.43-3.98,.4-5.97-.33-18.04,1.09-17.16,17.6-17.16,56.96,0,113.92,0,170.88,0,3.5,0,7-.03,10.49,.23,5.61,.41,7.16,1.85,7.52,7.16,.3,4.48,.13,8.99,.41,13.47,.35,5.62,1.69,7.07,7.31,7.2,9.99,.22,19.98,.13,29.98,.14,16.11,.02,15.91-.66,15.9,15.31,0,36.46,0,72.92,0,109.38,0,3.99-.06,8,.17,11.98,.28,4.95,1.43,6.1,6.05,6.88q12.21,2.05,12.38,14.53c.05,4.49,.01,8.99,.01,13.49,.03,70.42,.07,140.85,.1,211.27-.23,4.98-.65,9.97-.66,14.95-.05,61.4-.04,122.81-.02,184.21,0,3.49,.07,6.99,.35,10.47,.32,3.92,2.44,6.36,6.43,7.14,7.84,1.53,15.65,3.15,23.72,3,20.49-.38,40.7,4.22,61.22,3.48,.99-.04,1.98,.24,2.97,.32,19.85,1.71,39.68,4.2,59.57,4.87,14.51,.48,28.83,2.25,43.23,3.47,7.09,.6,8.84,2.27,9.03,9.29,.32,11.97,.14,23.96,.22,35.94,.12,17.36,.22,17.53,17.57,17.56,38.46,.06,76.91,.02,115.37,.02,66.42,0,132.85-.04,199.27,.04,14.51,.02,15.15,.81,15.36,15.25,.14,9.48-.12,18.98,.21,28.45,.26,7.56,2.31,9.27,10.14,9.86,.99,.07,2,.08,2.99,.08,21.97,0,43.95,.02,65.92-.01,2.49,0,5-.13,7.46-.5,3.31-.5,5.52-2.59,5.8-5.9,.41-4.96,.51-9.96,.51-14.95,.03-120.81,.02-241.62,.01-362.43,0-3.99-.16-7.98-.25-11.97,.05-94.9,.09-189.8,.14-284.71,0-4.49,.08-8.99,.1-13.48,.02-3.89,1.43-6.67,5.54-7.73,2.89-.74,5.69-1.86,8.55-2.73,29.12-8.92,58.27-17.72,87.33-26.8,6.78-2.12,13.53-3.11,20.6-3.06,21.49,.15,42.97,.04,64.46,.05,10.49,0,20.99,.06,31.48,.09,3.88,.01,6.93,1.14,7.19,5.67,.24,4.26,2.49,6.29,6.67,6.3,10.99,.02,21.99,.16,32.98-.03,5.49-.09,6.74-1.49,6.95-7.46,.27-7.48,.03-14.99,.28-22.47,.29-8.64,1.38-10.03,9.31-10.15,15.99-.24,31.98-.22,47.97,0,6.93,.1,8.44,1.88,8.7,9.25,.26,7.48-.01,14.99,.23,22.47,.24,7.41,1.19,8.26,9.09,8.43,7.99,.17,15.99,0,23.98,.08,20.83,.19,19.28-2.25,19.29,19.38,.05,71.93,.02,143.85,.02,215.78,0,18.36-.68,17.58,18.56,17.34,8-.1,9.05-1.37,9.36-9.97,.18-4.99,.03-9.99,.09-14.98,.24-19.98,.45-39.95,.78-59.92,.13-8.01,1.22-15.91,3.43-23.66,5.16-18.16,16.03-29.59,35.77-30.78,19.97,.09,39.94,.31,59.9,.22,14.47-.06,15.35-.95,15.41-15.26,.12-28.97,.05-57.94,.04-86.91,0-24.49-1.3-23.42,22.32-23.35,12.9,.04,16.88,.45,16.36-15.87-.03-.99,.04-2,.17-2.99,.74-5.65,2.8-7.62,8.73-8.24,1.49-.16,2.99-.17,4.49-.17,27.98-.01,55.96-.13,83.94,.04,12.65,.08,13.14,.83,14.06,13.71,.92,12.9,1.14,13.11,14.14,13.51,1.5,.05,3-.02,4.5,.03,12.71,.4,13.46,1.15,13.9,13.76,.02,.5,.02,1,0,1.5-.32,17.49,1.1,18,18.86,18.01,17.22,0,17.51,.56,17.51,17.69,0,7.58,.26,15.47-5.86,20.95-5.53,4.95-6.42,10.85-6.26,17.56,.21,8.99-.07,17.99,.24,26.97,.22,6.24,2.21,8.57,7.92,8.78,9.98,.36,19.98,.17,29.96,.11,1.46,0,2.97-.45,4.36-.97,2.56-.95,4.01-2.98,4.18-5.65,.13-2.03-.56-4.01-2.34-5.22-1.21-.82-2.66-1.29-3.99-1.94-7.24-3.55-7.42-3.83-5.27-11.13,.99-3.35,2.25-6.61,3.4-9.91,1.5-4.3,4.6-6.35,9.09-6.38,6.99-.06,13.99-.18,20.98-.13,15.92,.11,16.52,.54,21.01,15.31,2.15,7.09,4.08,10.86-6.16,12.72-1.44,.26-2.88,.9-4.15,1.65-2.29,1.35-3.61,3.39-3.39,6.17,.22,2.87,1.93,4.64,4.62,5.06,3.44,.54,6.96,.52,10.42,.97,13.33,1.71,23.63,7.9,28.97,20.66,2.3,5.5,4.77,11.21,5.48,17.03,1.62,13.34,3.6,26.62,3.55,40.21-.29,78.42-.15,156.83-.13,235.25,0,4.99-.03,10,.36,14.97,.39,4.96,2.52,6.96,7.71,7.36,4.47,.35,8.98,.3,13.48,.3,62.96,.02,125.92,0,188.88,.04,4.98,0,9.97,.27,14.94,.61,2.14,.14,3.69,1.56,4.35,3.58,.85,2.6,.09,4.87-2.03,6.63-.38,.31-.84,.58-1.31,.72-5.72,1.71-7.55,5.81-7.47,11.42,.15,9.99,.05,19.98,.08,29.97,.01,4.87,1.76,8.06,6.65,10.45,6.22,3.05,6.42,8.02,.52,10.82-5.46,2.59-7.3,6.12-7.24,11.63,.1,9.49,.04,18.98,0,28.47-.02,5.31,1.24,9.21,6.84,11.94,6.17,3.01,6.26,8.12,.36,10.89-5.51,2.58-7.32,6.18-7.19,11.65,.07,2.99-.01,5.99-.04,8.99-.18,19.34-.09,20.1,21.97,19.03,5.55-.27,7.58-2.71,7.96-8.84,.31-4.98,.2-9.98,.2-14.98,0-129.86,0-259.72,0-389.58,0-4.5-.08-8.99,.03-13.49,.33-12.57,1.4-13.96,13.73-14,47.97-.14,95.94-.08,143.91-.02,2.97,0,5.97,.4,8.9,.91,2.34,.41,3.74,3.55,2.84,5.99-.34,.92-1.16,1.68-1.44,2.62-4.76,16.12-3.27,32.4-1.15,48.69,4.65,5.4,3.32,10.18,.19,16.27-4.37,8.51-.33,15.77,10.62,15.52,8.99-.2,17.99,.04,26.98,.02,11.09-.03,14.26,1.07,14.58,13.34,.24,9.32,1.83,10.31,10.61,10.75,3.49,.18,6.99,.09,10.49,.09,24.98,0,49.97,0,74.95,.01,4,0,8.01-.1,11.99,.21,5.71,.45,7.72,2.56,8.18,8.61,.3,3.98,.19,7.99,.21,11.98,.05,10.49-.15,20.98,.17,31.46,.26,8.63,2.01,10.25,10.98,10.52,8.99,.26,17.99,.25,26.98-.04,7.88-.26,9.74-2.11,10.09-9.8,.34-7.48,.02-14.99,.37-22.47,.33-6.83,2.29-8.76,9.25-9.09,7.48-.36,14.99-.03,22.48-.38,7.01-.32,9.09-2.31,9.5-8.89,.31-4.97,.31-10,.02-14.97-.4-6.82-2.28-8.6-9.33-9-6.48-.36-12.99-.18-19.46-.61-3.94-.26-6.15-3.21-6.11-7.13,.03-3.91,2.25-6.8,6.14-7.17,4.46-.42,8.97-.46,13.47-.47,50.47-.03,100.93-.03,151.4-.01,13.78,0,17.34,.26,17.41-15.1,.03-5.97,2.42-7.85,8.57-8.12,7.48-.33,14.99-.22,22.47,0,2.43,.07,5.27,.42,7.17,1.73,6.24,4.32,13.19,4.08,20.19,4.08,21.99-.01,43.97,.03,65.96-.01,19.11-.04,19.18-.08,19.2-19.11,.04-45.95,.03-91.9-.01-137.85,0-4.99-.37-9.97-.57-14.96,.05-32.28,.22-64.57,.1-96.85-.09-23.08,3.46-45.56,10.97-67.3,3.87-11.21,8.96-22,13.5-32.98,1.34-2.1,2.76-4.15,4.01-6.3,16.05-27.58,36.95-50.72,63.1-69.08,2.01-1.41,3.74-3.22,5.6-4.85,10.64-5.42,21.27-10.84,31.91-16.25,2.83-1.44,5.31-3.52,4.92-6.83-1.17-10.06,5.43-15.22,12.03-20.75,15.28-12.81,30.39-25.83,45.48-38.87,2.6-2.24,5.71-4.64,6.88-7.63,2.04-5.24,.42-12.42,8.9-13.53,.72-.09,1.49-2.44,1.64-3.8,.33-2.96,.21-5.97,.37-8.95,.3-5.43-.87-10.98,1.21-16.24,.26-.66,1.36-1.12,2.16-1.4,1.17-.41,1.99,.16,2.28,1.35,.35,1.43,.92,2.86,.96,4.3,.16,5.98,.03,11.96,.24,17.94,.23,6.78,.47,7.27,7.59,8.16,4.44,.55,8.02,1.33,7.74,6.72-.3,5.74,3.31,9.03,7.09,12.41,15.98,14.29,31.86,28.7,47.86,42.97,4.6,4.1,8.67,8.22,7.84,15.14-.48,3.96,1.66,6.51,5.3,7.99,17.65,7.18,33.12,18.17,49.1,28.26,3.59,3.42,7.14,6.89,10.79,10.25,32.74,30.14,55.21,66.45,65.79,109.81,5.34,21.91,6.86,44.22,6.62,66.73-.14,12.83,.11,13.04,13.32,13.71,28.86,1.48,57.74,2.77,86.61,4.03,4.96,.22,9.93-.08,14.9-.14,11.73,2.55,23.69,2.39,35.58,2.83,23.69,.89,20.96-1.69,21.13,22.47,.21,29.29,.31,58.59,.46,87.88-.15,37.94-.3,75.88-.44,113.82,0,1.5,.05,3,.22,4.48,.6,5.24,2.36,7.38,7.32,7.81,13.41,1.18,26.82,2.33,40.26,3.07,8.97,.5,17.98,.19,26.97,.39,17.45,.38,18.3,1.23,18.35,19.17,.08,24.96-.05,49.93,.05,74.89,.06,16.21,.45,16.59,16.99,16.63,35.46,.07,70.93,.02,106.39,.02,2.5,0,5,.05,7.49-.13,7.65-.54,9.48-2.19,9.66-10.22,.29-12.98,.07-25.96,.18-38.94,.14-16.09,.48-16.49,17.13-16.53,36.46-.08,72.93-.03,109.39,0,3.49,0,7,.03,10.47,.42,4.22,.47,6.19,2.47,6.62,6.77,.44,4.46,.27,8.99,.73,13.45,.56,5.47,3,7.98,8.66,8.49,5.96,.54,11.97,.51,17.95,.73Z"/><path class="d" d="M2.16,0H7496.02V728.39c-1779.97,0-3559.94,0-5339.91,0-8.99,0-17.99,.05-26.98,.08-.26-5.97-.75-11.94-.75-17.91-.03-65.38,.01-130.76,.01-196.14,0-4.99-.14-9.97-.32-14.96-.12-3.4-2.03-5.54-5.22-6.44-1.91-.54-3.9-.85-5.87-1.09-43.58-5.34-87.16-10.61-130.73-16.04-5.5-.69-10.87-.7-16.38-.19-24.84,2.31-49.7,4.45-74.56,6.52-28.84,2.4-57.7,4.63-86.54,7-11.93,.98-23.88,1.93-35.78,3.23-8.71,.95-10.32,2.62-10.37,11.36-.17,26.45-.03,52.9-.12,79.35-.02,6.47-.47,12.94-.72,19.42-11.72-3.04-23.67-3.11-35.68-3.11-172.92,.07-345.83,.04-518.75,.05-61.47,0-122.94,.06-184.41,.1-.29-9.97-.58-19.94-.88-29.9-.12-3.99-.12-7.99-.46-11.96-.18-2.05-1.5-3.74-3.6-4.31-1.91-.52-3.93-.64-5.88-1.04-7.48-1.53-8.2-2.12-8.37-9.68-.23-10.48-.09-20.98-.12-31.46-.04-16.25,.63-17.57-15.9-17.38-1.5,.02-3-.06-4.49-.23-5.04-.6-6.87-2.38-7.12-7.79-.32-6.98-.04-13.99-.4-20.97-.35-6.93-2.14-8.77-9.22-8.85-17.98-.2-35.97-.21-53.96-.02-7.85,.08-9.18,1.69-9.66,9.98-.23,3.98-.08,7.99-.15,11.98-.05,2.99-.02,6-.32,8.97-.43,4.2-2.42,6.12-6.67,6.64-1.98,.24-3.99,.32-5.98,.29-15.06-.25-14.78,1.93-14.79,15.49,0,8.49,.02,16.98-.02,25.47-.01,3.49,.02,7-.28,10.48-.38,4.5-2.1,6.64-6.42,6.72-12.98,.26-25.96,.18-38.94,.09-3.28-.02-5.11-2.17-6.86-4.91-4.36-6.83-3.73-14.34-3.73-21.8,0-114.37,.04-228.75,.06-343.12,0-4.49,.06-8.99-.1-13.48-.07-1.96-.46-3.94-1.04-5.81-.2-.63-1.45-1.33-2.18-1.29-.79,.04-1.98,.76-2.21,1.45-1.83,5.32-.97,10.87-.97,16.31-.02,115.37,.03,230.74,.05,346.11,0,7.47,.57,15-2.82,22.07-3.58,7.46-3.37,15.47-3.36,23.48,.05,70.42,.07,140.84,.04,211.26,0,5.98-.42,11.96-.65,17.94-4.5-1.62-5.24-5.31-5.76-9.52-1.83-14.82-3.85-29.62-6.02-44.39-1.46-9.95-3.33-11.49-13.63-11.96-4.99-.23-9.99-.09-14.98-.09-246.79,0-493.58,0-740.36,0-7.49,0-14.99-.09-22.48-.14L2.16,0Z"/><path class="e" d="M2129.12,728.48c8.99-.03,17.99-.08,26.98-.08,1779.97,0,3559.94,0,5339.91,0v773.35c-2-.02-4-.01-5.99-.05-4.43-.09-7.97-1.65-8.71-6.45-1.1-7.09-5.88-8.43-11.94-8.41-18.98,.06-37.96,.13-56.94-.04-6.78-.06-11.66,1.53-12.86,9.25-.63,4.04-3.86,5.56-7.85,5.19-3.85-.36-6.02-2.48-6.36-6.99-.45-5.96-.39-11.97-.75-17.94-.23-3.95-2.41-6.51-6.43-7.08-8.39-1.18-16.8-3.18-25.19-3.15-16.03,.05-31.65-4.53-47.71-3.6-1.47,.09-3.02-.18-4.44-.59-9.29-2.68-18.84-2.37-28.29-1.92-8.44,.4-16.83,2.56-25.24,2.59-16.02,.06-31.66,4.37-47.71,3.61-1.95-.09-4.06,.3-5.87,1.02-6.41,2.58-15.12-1.28-19.63,5.09-4.14,5.83-1.28,13.65-2.19,20.52-2.38-.97-4.49-2.28-5.21-4.94-1.17-4.31-2.25-8.54-1.95-13.2,.66-10.25-.51-11.36-10.01-11.83-2.99-.15-5.99-.07-8.99-.07-213.72,0-427.45,.01-641.17-.06-8.55,0-16.94,.54-25.14,3.06,.04-7.56-.57-14.56-6.69-20.48-12.86-12.43-25.14-25.41-36.88-38.97-11.37-13.13-24.38-24.85-36.71-37.15-2.11-2.1-4.33-4.12-6.71-5.89-1.66-1.22-3.81-1.34-5.62-.2-1.67,1.04-3.29,2.28-4.64,3.7-22.62,23.77-47.16,45.61-68.64,70.57-8.48,9.85-15.83,18.67-14.3,32.52,.62,5.59-3.61,7.66-8.81,7.6,.22-.97,.5-1.94,.65-2.92,1.39-9.4-1.22-13.32-9.98-14.45-3.45-.44-6.98-.32-10.47-.32-163.83,.01-327.66,.04-491.49,.07q-2.18-14.21-16.34-14.35c-2.99-.03-5.98,0-8.97,0-42.38,0-84.76,0-127.14,0-3.99,0-7.98,.07-11.96-.16-5.74-.33-6.4-1-7.91-6.73-2.13-8.07-2.13-8.1-9.45-8.41-2.99-.12-5.98-.06-8.97-.06-54.84,0-109.69,0-164.53,0-2.99,0-5.99-.08-8.97,.07-6.55,.33-6.77,.57-8.64,7.63-1.85,6.97-2.02,7.22-8.7,7.55-8.45,.42-16.94,.43-25.37,1.06-17.39,1.3-34.76,2.95-52.14,4.36-27.81,2.25-55.64,4.37-83.45,6.7-2.9,.24-5.7,1.53-8.55,2.33-6.5-.02-12.99-.06-19.49-.06-539.68,0-1079.37,0-1619.05,0-7.5,0-14.99,.12-22.48,.18-2.23-2.94-2.28-6.54-2.99-9.93-12.67-60.63-27.33-120.76-44.77-180.2-6.05-20.6-12.64-41.04-19.04-61.53-1.3-4.15-2.05-7.84,3.44-9.53,2.2-.68,2.89-2.64,2.65-4.76-.26-2.28-1.98-3.78-4.01-3.67-7.97,.41-9.97-5.17-11.74-11.12-.14-.48-.29-.95-.42-1.44-1.54-5.64-1.26-6.33,5.51-9.43,2.47-1.13,4.39-2.34,4.12-5.33-.21-2.36-2.03-3.75-3.99-3.69-8.17,.23-10.86-5-13.37-11.59-9.24-24.26-18.47-48.54-28.51-72.48-19.92-47.5-42.51-93.68-70.51-137.05-14.67-22.72-30.78-44.29-50.55-62.93-9.14-8.62-19.01-16.12-30.22-21.9-18.24-9.39-36.31-9.39-54.55-.03-11.69,5.99-21.86,13.91-31.31,22.93-21.88,20.86-39.24,45.22-55.13,70.72-20.11,32.27-37.21,66.14-52.93,100.73-14.88,32.75-28.22,66.14-40.49,99.94-2.4,6.6-5.12,11.39-13.28,11.79-4.99,.25-5.65,4.89-1.43,8.43,1.83,1.54,4.68,1.98,4.59,5.16-.14,5.14-2.05,9.8-4.46,14.14-1.63,2.93-5.16,2.51-8.08,3.03-1.97,.35-3.9,1.04-4.28,3.47-.34,2.16,.17,4.21,2.31,4.9,5.18,1.66,5.53,4.99,3.83,9.37-.72,1.86-1.2,3.81-1.82,5.71-24.59,75.57-44.57,152.36-60.81,230.13-13.48,64.54-24.28,129.51-32.48,194.94-1.42,11.29-.73,23.04-5.34,33.86-4.5-.03-8.99-.2-13.49-.08-11.7,.32-13.06,1.61-13.46,12.82-.19,5.49,.08,11-.24,16.47-.41,7.01-2.39,9.31-8.92,9.51-8.98,.27-18.2,1.16-26.91-.43-15.43-2.81-30.86-1.86-46.3-2.3-8.98-.25-18.14,.6-26.91-.86-10.45-1.75-20.85-1.88-31.32-2.1-16.44-.34-32.96,.98-49.26-2.57-3.36-.73-6.97-.33-10.46-.35-9.99-.08-19.98-.09-29.97-.16-9.48-.07-18.86-.94-28.32-1.91-18.86-1.94-37.93-2.08-56.81,.14-7.45,.87-14.84,1.66-22.33,1.89-18.44,.56-36.69,4.1-55.21,3.41-1.47-.05-2.99,.33-4.42,.73-6.35,1.75-12.86,2.1-19.33,1.73-12.6-.73-24.83,2.03-37.22,3.35-5.67,.6-7.43,2.8-7.8,9.06-.32,5.48-.17,10.98-.21,16.47-.07,9.49,.09,18.98-.29,28.45-.23,5.72-2.73,7.94-8.46,8.44-3.47,.3-6.99,.22-10.48,.23-20.98,.02-41.96,0-62.94,.02-3.99,0-7.99,.1-11.97,.33-3.21,.19-6.33,1.59-6.8,4.83-1.39,9.51-7.96,10.18-15.44,9.92-4.49-.15-8.99,.07-13.49-.05-12.03-.32-14.02-2.39-13.75-14,.02-1-.06-2.03,.15-2.99,3.85-17.27,2.05-34.8,2.4-52.24,.07-3.48-.02-7-.42-10.46-.48-4.19-2.58-6.33-6.67-6.81-3.46-.41-6.97-.43-10.46-.45-13.99-.08-27.97-.09-41.96-.12-.22-6.98-.63-13.96-.63-20.94,.03-254.2,.1-508.4,.16-762.6,0-4.99,.1-9.99-.05-14.98-.3-9.7-.97-10.5-10.15-10.72-8.99-.21-17.99-.04-26.98-.09-7.49-.04-14.99-.08-22.47-.28-3.48-.1-5.59-2.16-5.73-5.63-.26-6.48-.19-12.98-.43-19.46-.23-6.18-2.16-7.45-7.18-4.69-4.37,2.41-8.58,5.11-12.89,7.64-11.18,6.56-22.38,13.1-33.57,19.65-1.02,.61-2.03,1.23-3.05,1.84-2.77,.3-5.15-.46-5.48-3.51-.43-3.96-.47-7.97-.47-11.96-.02-44.94,0-89.89,.05-134.83,0-4.48,.37-8.97,.56-13.45Z"/><path class="g" d="M7171.9,1492.81c.92-6.88-1.95-14.69,2.19-20.52,4.52-6.36,13.22-2.5,19.63-5.09,1.81-.73,3.93-1.12,5.87-1.02,16.05,.76,31.69-3.56,47.71-3.61,8.42-.03,16.8-2.19,25.24-2.59,9.45-.45,18.99-.76,28.29,1.92,1.42,.41,2.97,.68,4.44,.59,16.05-.93,31.67,3.64,47.71,3.6,8.4-.02,16.8,1.97,25.19,3.15,4.01,.56,6.19,3.13,6.43,7.08,.36,5.97,.29,11.98,.75,17.94,.34,4.51,2.51,6.63,6.36,6.99,3.99,.37,7.22-1.15,7.85-5.19,1.2-7.72,6.08-9.31,12.86-9.25,18.98,.17,37.96,.1,56.94,.04,6.06-.02,10.84,1.32,11.94,8.41,.74,4.8,4.29,6.36,8.71,6.45,2,.04,3.99,.04,5.99,.05v704.41c-1.98,.15-3.98,.5-5.95,.43-38.83-1.36-77.66-2.77-116.49-4.18-1.49-.05-2.99-.21-4.46-.45-7.94-1.26-15.85-1.09-23.83-.19-5.93,.66-11.93,.82-17.9,.93-23.42,.41-46.84,.72-70.26,1.06-4.48,.06-8.97,.16-13.45,.07-4.32-.09-7.23-1.58-8.62-6.42-2.45-8.54-2.81-8.68-10.93-8.75-18.94-.15-37.87-.04-56.81-.01-1.49,0-2.99,.14-4.46,.35-3.35,.48-5.34,2.39-5.78,5.79-.26,1.97-.42,3.96-.74,5.93-.54,3.34-2.53,5.28-5.9,5.73-1.97,.26-3.99,.3-5.93,.71-5.28,1.13-6.8,2.68-7.27,7.91-.4,4.46-.19,8.97-.58,13.43-.45,5.07-2.36,7.12-7.66,7.21-12.45,.21-24.91-.01-37.36-.06-.15-29.29-.25-58.59-.46-87.88-.17-24.16,2.55-21.59-21.13-22.47-11.9-.44-23.85-.28-35.58-2.83-.07-155.84-.14-311.69-.19-467.53,0-3.49,0-7,.34-10.47,.5-4.94,2.61-7.15,7.66-7.49,5.97-.4,11.98-.19,17.97-.39,10.76-.36,12.27-1.8,12.72-11.99,.15-3.49,.06-6.99,.06-10.49,0-30.47-.03-60.94,0-91.41,0-4.49,.11-8.99,.41-13.46,.27-3.98,2.6-6.38,6.56-6.98,1.97-.3,3.98-.43,5.97-.44,20.99-.03,41.98-.03,62.96-.02,4.03,0,8.02,.17,11.36,2.9-.07,38.46-.14,76.92-.19,115.38,0,2.99,.06,6,.35,8.97,.14,1.43,.57,3.04,1.42,4.14,.82,1.07,2.26,2.01,3.58,2.29,2.02,.43,3.93-.34,5.11-2.24,1.95-3.16,1.65-6.73,1.64-10.19-.06-41.45-.16-82.91-.25-124.36v-5.87Z"/><path class="h" d="M7091.62,2235.63c12.45,.05,24.91,.26,37.36,.06,5.3-.09,7.21-2.14,7.66-7.21,.4-4.46,.19-8.97,.58-13.43,.46-5.24,1.99-6.78,7.27-7.91,1.94-.42,3.96-.45,5.93-.71,3.37-.45,5.36-2.39,5.9-5.73,.32-1.96,.48-3.95,.74-5.93,.45-3.4,2.43-5.31,5.78-5.79,1.47-.21,2.97-.35,4.46-.35,18.94-.03,37.87-.14,56.81,.01,8.12,.07,8.49,.21,10.93,8.75,1.39,4.85,4.29,6.33,8.62,6.42,4.48,.09,8.97,0,13.45-.07,23.42-.33,46.84-.65,70.26-1.06,5.97-.11,11.97-.26,17.9-.93,7.98-.89,15.9-1.07,23.83,.19,1.47,.23,2.97,.39,4.46,.45,38.83,1.41,77.66,2.82,116.49,4.18,1.98,.07,3.97-.28,5.95-.43v233.8c-5.99-.22-12-.2-17.95-.73-5.66-.51-8.1-3.02-8.66-8.49-.46-4.46-.29-8.98-.73-13.45-.43-4.3-2.4-6.3-6.62-6.77-3.46-.39-6.98-.41-10.47-.42-36.46-.03-72.93-.07-109.39,0-16.65,.03-16.99,.43-17.13,16.53-.11,12.98,.11,25.97-.18,38.94-.18,8.03-2.02,9.68-9.66,10.22-2.49,.18-4.99,.13-7.49,.13-35.46,0-70.93,.06-106.39-.02-16.54-.03-16.93-.41-16.99-16.63-.1-24.96,.03-49.93-.05-74.89-.06-17.94-.9-18.79-18.35-19.17-8.99-.2-18,.11-26.97-.39-13.44-.74-26.85-1.9-40.26-3.07-4.96-.44-6.72-2.57-7.32-7.81-.17-1.48-.22-2.99-.22-4.48,.14-37.94,.29-75.88,.44-113.82Z"/><path class="h" d="M2.39,3746.79c6.99-.11,13.99-.32,20.98-.32,2483.89-.01,4967.78-.01,7451.66,0,6.99,0,13.98,.25,20.98,.38,0,1,.39,2.39-.11,2.89-.5,.5-1.89,.11-2.89,.11-3.5,0-7,0-10.49,0H2.16c.08-1.02,.15-2.04,.23-3.06Z"/><path class="h" d="M2137.51,890.39c11.19-6.55,22.39-13.09,33.57-19.65,4.31-2.53,8.52-5.23,12.89-7.64,5.02-2.76,6.95-1.5,7.18,4.69,.24,6.48,.16,12.98,.43,19.46,.14,3.48,2.25,5.54,5.73,5.63,7.49,.21,14.98,.24,22.47,.28,8.99,.05,17.99-.12,26.98,.09,9.17,.21,9.85,1.02,10.15,10.72,.15,4.99,.05,9.99,.05,14.98-.06,254.2-.13,508.4-.16,762.6,0,6.98,.41,13.96,.63,20.94-.1,38.99-.21,77.99-.31,116.98-47.48,.06-94.95,.15-142.43,.16-22.95,0-22.27-.97-22.27,21.98,.08,352.68,.13,705.36,.18,1058.05,0,7.5-.14,14.99,1.62,22.36,.23,.97,.39,1.98,.4,2.97,.08,20.98,.29,41.96,.1,62.93-.06,7.04-2.24,8.93-8.95,9.39-3.98,.27-7.99,.17-11.99,.17-31.98,.01-63.97-.04-95.95,.03-17.41,.04-17.6,.26-17.69,17.5-.08,14.99,.01,29.97-.04,44.96-.01,3.99-.1,8-.51,11.96-.34,3.28-2.39,5.41-5.73,6.01-1.47,.26-2.98,.43-4.47,.43-13.99,.04-27.99-.08-41.98,.09-6.03,.07-10.37-2.09-13.87-7.13-9.39-13.54-19.44-26.63-28.59-40.33-5.39-8.08-11.91-12.47-21.8-13.57-18.82-2.08-37.56-5.04-56.27-8.06-27.35-4.42-24.29-1.23-24.31-26.76-.1-103.41-.04-206.81-.04-310.22,0-22.6,1.31-22.45-21.94-22.35-11.49,.05-22.99,.13-34.48-.21-6.86-.2-8.81-2.36-9.27-9.14-.31-4.48-.19-8.99-.19-13.48-.01-46.46,0-92.92,0-139.37,0-3.5,.08-7-.03-10.49-.14-4.45,.9-9.21-1.74-13.15-2.96-4.4-8.12-2.96-12.41-3.67-4.04-.67-6.27-2.89-6.59-6.88-.28-3.48-.33-6.98-.37-10.47-.06-6.99,.12-13.99-.09-20.98-.3-10.08-1.32-11.1-10.98-12.1-2.48-.26-4.98-.38-7.47-.56-.02-4.49-.06-8.97-.06-13.46,0-225.87,0-451.73-.04-677.6,0-7.46-.63-14.91-.97-22.37,.26-5.47,.75-10.95,.75-16.42,0-150.74-.03-301.49-.12-452.23,0-5.46-.6-10.93-.93-16.39,1.91-6.86,1.12-13.89,1.12-20.84,.01-150.14-.04-300.28-.03-450.42,0-6.97,.48-13.93,.74-20.9,3.49,.03,6.99,.09,10.48,.06,2.57-.02,4.94-.58,6.47-2.94,.29-9.39,.73-18.78,.8-28.17,.04-5.07,2.13-8.36,6.63-10.52,6.25-3,12.42-6.16,18.6-9.31,19.77-10.07,19.29-10.98,19.41,11.31,.07,12.33-1.31,24.74,1.12,37.01,12.93,4.34,26.03,2.9,39.09,.9,.76-.12,1.18-2.46,1.75-3.77,.18-19.22,.5-38.45,.5-57.67,0-17.74-.34-35.49-.52-53.23,.25-6.47,.7-12.94,.72-19.42,.09-26.45-.06-52.9,.12-79.35,.06-8.74,1.67-10.41,10.37-11.36,11.9-1.3,23.84-2.25,35.78-3.23,28.84-2.36,57.7-4.6,86.54-7,24.86-2.07,49.72-4.21,74.56-6.52,5.51-.51,10.88-.5,16.38,.19,43.57,5.43,87.15,10.7,130.73,16.04,1.97,.24,3.96,.55,5.87,1.09,3.19,.9,5.1,3.04,5.22,6.44,.17,4.98,.32,9.97,.32,14.96,0,65.38-.05,130.76-.01,196.14,0,5.97,.49,11.94,.75,17.91-.19,4.48-.55,8.97-.56,13.45-.06,44.94-.06,89.89-.05,134.83,0,3.99,.04,8,.47,11.96,.33,3.05,2.71,3.81,5.48,3.51,1.01-.61,2.03-1.23,3.05-1.84Z"/><path class="h" d="M1.97,2565.71c-.17-6.97-.49-13.95-.49-20.92-.03-250.87-.02-501.75-.04-752.62,0-6.98-.24-13.96-.36-20.94l.59-.66c9.46-.52,18.92-1.24,28.39-1.51,28.44-.82,56.88-1.09,85.33-2.8,57.92-3.49,115.8,.54,173.66,2.97,2.49,.1,5.02,1.06,7.43,.77,11.41-1.39,10.15,14.43,20.26,14.76,.64,.02,1.47,1.32,1.78,2.19,.5,1.38,.83,2.89,.88,4.36,.16,4.49,.18,8.98,.19,13.48,.04,15.48-.1,30.96,.15,46.43,.13,8.23,1.65,9.8,9.65,9.94,14.48,.27,28.97,.11,43.45,.16,23.1,.08,21.71-1.77,21.72,22.09,0,116.33,0,232.66,.02,349,0,4.99,0,9.99,.36,14.96,.33,4.45,2.16,6.37,6.55,6.6,6.98,.36,13.97,.34,20.96,.36,15.98,.03,31.97,.14,47.95-.07,9.74-.13,10.77-1.41,11.15-11.53,.11-2.99,.04-5.99,.04-8.99,.02-13.98-.11-27.96,.13-41.94,.13-7.9,1.39-9.24,8.91-11.71,2.37-.78,4.84-1.24,7.24-1.9,10.59-2.92,21.16-5.89,31.76-8.79,5.46-1.49,8.64-4.64,8.44-10.65-.12-3.49,.07-6.99,.07-10.48,0-182.74,.02-365.47-.04-548.21,0-5.96-.7-11.92-1.07-17.89,.31-6.45,.9-12.9,.9-19.36,.03-126.04-.02-252.09,0-378.13,0-6.45-.68-12.96,1.03-19.33,12.2,.1,24.39,.26,36.59,.26,3.82,0,7.91,.62,10.96-2.71,.28-5.46,.8-10.92,.81-16.38,.07-33.39,.02-66.79,.02-100.18,0-3.99,.08-7.97,.18-11.96,.1-4.04,2.17-6.47,6.16-7.18,2.45-.44,4.91-.96,7.38-1.17,27.81-2.28,55.62-4.73,83.46-6.68,18.53-1.3,19.22-.6,19.07-18.12-.06-6.59,1.61-8.05,7.9-8.27,8.97-.31,17.95-.27,26.92-.29,4.51-.01,7.64-1.48,8.49-6.42,.7-4.07,3.6-5.68,7.56-5.7,11.47-.04,22.93-.1,34.4-.13,17.8-.05,17.26,.7,17.26-17.09-.02-49.84-.01-99.68-.06-149.52,0-4.48-.31-8.96-.47-13.43,.23-5.98,.65-11.96,.65-17.94,.03-70.42,.01-140.84-.04-211.26,0-8.01-.22-16.02,3.36-23.48,3.39-7.06,2.82-14.6,2.82-22.07-.02-115.37-.07-230.74-.05-346.11,0-5.45-.86-10.99,.97-16.31,.24-.69,1.43-1.41,2.21-1.45,.73-.04,1.99,.66,2.18,1.29,.58,1.87,.97,3.86,1.04,5.81,.16,4.49,.1,8.99,.1,13.48-.02,114.37-.06,228.75-.06,343.12,0,7.45-.64,14.97,3.73,21.8,1.75,2.74,3.58,4.89,6.86,4.91,12.98,.08,25.97,.17,38.94-.09,4.32-.09,6.03-2.22,6.42-6.72,.3-3.48,.26-6.98,.28-10.48,.04-8.49,0-16.98,.02-25.47,.01-13.56-.27-15.74,14.79-15.49,1.99,.03,4.01-.05,5.98-.29,4.25-.52,6.25-2.43,6.67-6.64,.3-2.97,.27-5.98,.32-8.97,.07-3.99-.08-8,.15-11.98,.48-8.29,1.81-9.9,9.66-9.98,17.98-.19,35.97-.18,53.96,.02,7.08,.08,8.87,1.92,9.22,8.85,.35,6.98,.08,13.99,.4,20.97,.25,5.41,2.08,7.19,7.12,7.79,1.48,.18,2.99,.25,4.49,.23,16.53-.19,15.86,1.13,15.9,17.38,.03,10.49-.12,20.98,.12,31.46,.17,7.56,.89,8.15,8.37,9.68,1.95,.4,3.97,.52,5.88,1.04,2.1,.57,3.42,2.25,3.6,4.31,.35,3.97,.34,7.97,.46,11.96,.3,9.97,.59,19.94,.88,29.9-.17,37.16-.36,74.33-.41,111.49,0,1.81,1.27,3.62,1.94,5.44,2.94,2.36,6.47,2.2,9.91,2.19,24.73-.08,49.45-.21,74.18-.32,.37,5.43,1.03,10.86,1.05,16.29,.1,26.82,.01,53.64,.06,80.46,0,4.46,.22,8.92,.59,13.36,.23,2.84,2.26,4.41,4.94,4.66,3.45,.33,6.94,.37,10.42,.38,12.92,.04,25.84,0,38.76,.03,3.48,0,6.97-.02,10.43,.27,4.17,.34,6.02,2.28,6.35,6.72,.3,3.95,.15,7.94,.3,11.91,.25,6.44,.58,12.87,.87,19.31,.43,2.53,2.03,2.95,4.21,2.32h9.22c.91,.48,1.88,.64,2.9,.5,3.64,6,2.17,12.64,2.17,19.01,.07,99.31,0,198.62,.02,297.93,0,6.47,.49,12.94,.76,19.4-.21,4.97-.61,9.94-.62,14.91-.09,150.95-.16,301.9-.17,452.84,0,5.96,.52,11.92,.8,17.88-.2,5.44-.57,10.88-.58,16.32-.05,44.6-.02,89.19-.02,133.79-9.49-.11-18.99-.16-28.48-.35-20.46-.41-40.74-3.73-61.28-3.3-8.4,.18-10.62-2.66-11.17-10.82-.4-5.97-.25-11.98-.62-17.96-.2-3.24-2.01-5.58-5.35-6.37-1.46-.34-2.93-.68-4.41-.87-27.67-3.55-55.27-10.6-83.21-7.98-26.87,2.53-53.95,.41-80.65,4.82-2.93,.49-5.99,.5-8.98,.38-23.53-.99-46.83,2.68-70.28,3.25-.5,.01-1,.03-1.5,.08-7.06,.68-8.94,2.3-9.38,9.07-.36,5.48-.06,10.99-.35,16.47-.43,8.04-1.88,9.48-9.57,10.52-13.38,1.81-26.78,2.8-40.31,2.7-21.49-.16-42.98,.39-64.46,.22-9.59-.07-18.86,1.9-28.28,2.95-4.01,.44-6.4,2.84-6.73,6.8-.37,4.47-.45,8.97-.45,13.46-.03,50.45-.07,100.9,0,151.36,.03,20.22-.17,20.38-19.49,20.38-15.4,0-16.06,.72-16.08,16.03-.08,46.96-.03,93.91-.03,140.87,0,114.89,0,229.78-.02,344.67,0,5.49-.12,10.99-.54,16.45-.26,3.31-2.49,5.55-5.81,5.89-4.46,.45-8.97,.56-13.46,.57-31.98,.04-63.97,.02-95.95,.02-170.41,0-340.82,0-511.23-.01-6.99,0-13.99-.2-20.98-.31Z"/><path class="h" d="M5228.03,1459.84c2.85-.8,5.66-2.09,8.55-2.33,27.81-2.33,55.63-4.45,83.45-6.7,17.38-1.41,34.75-3.06,52.14-4.36,8.44-.63,16.92-.64,25.37-1.06,6.68-.33,6.85-.58,8.7-7.55,1.87-7.06,2.09-7.31,8.64-7.63,2.98-.15,5.98-.07,8.97-.07,54.84,0,109.69,0,164.53,0,2.99,0,5.99-.07,8.97,.06,7.32,.31,7.32,.34,9.45,8.41,1.52,5.73,2.17,6.4,7.91,6.73,3.98,.23,7.97,.16,11.96,.16,42.38,0,84.76,0,127.14,0,2.99,0,5.98-.02,8.97,0q14.17,.14,16.34,14.35c-.24,4.48-.68,8.96-.69,13.44-.07,96.39-.1,192.79-.08,289.18,0,4.97,.61,9.93,.93,14.9,.42,2.57,2.13,2.72,4.19,2.24,5.48,.2,10.96,.45,16.45,.59,12.95,.31,13.11,.28,13.14,13.75,.09,32.95,.02,65.89,.02,98.84,0,6.99,.3,13.99-.06,20.96-.33,6.25,2.31,10.24,7.4,13.53,9.64,6.24,18.94,12.98,28.51,19.32,14.97,9.92,29.21,20.96,45.21,29.3,3.3,4.62,8.28,7.28,12.95,9.95,7.03,4.02,9.28,9.64,8.91,17.38-.43,8.96-.12,17.96-.09,26.94,.09,25.51-2.01,23.77,23.1,23.85,4.49,.01,9-.02,13.46,.4,5,.46,7.04,2.59,7.44,7.68,.35,4.47,.19,8.97,.3,13.46,.33,12.9,.78,13.51,13.63,13.62,18.97,.16,37.93-.06,56.9,.1,12.89,.11,13.46,.65,13.53,13.63,.14,25.94,.04,51.89,.06,77.83,0,3.99-.05,7.99,.24,11.96,.41,5.5,2.07,7.64,7.11,7.76,11.46,.28,22.94,.24,34.41-.04,4.33-.11,6.2-2.29,6.7-6.58,.35-2.96,.31-5.97,.42-8.96,.51-14.28,.59-14.43,14.14-14.59,9.48-.11,18.97-.04,28.45,0,2.49,0,5,.03,7.47,.3,4.16,.45,5.9,2.38,6.43,6.8,.12,.99,.17,1.99,.21,2.98,.29,8.36-.68,16.73,4.98,24.34,2.01,2.71,1.19,7.71,1.24,11.66,.16,12.47-.09,24.95,.21,37.42,.19,7.89,1.84,9.53,10.05,9.58,27.95,.16,55.9,.16,83.85-.03,7.76-.05,9.16-1.85,9.59-10.06,.21-3.98,.1-7.98,.1-11.97,.02-14.47-.13-28.94,.08-43.41,.15-10.98,1.32-12.01,11.92-12.39,2.99-.11,5.99-.04,8.98-.04,15.47,0,30.95,.02,46.42-.02,3.49,0,6.99-.08,10.46-.39,3.36-.3,5.56-2.29,5.86-5.68,.35-3.97,.4-7.97,.42-11.95,.07-11.47-.11-22.95,.14-34.42,.18-8.16,1.72-9.77,9.64-10.01,10.47-.31,20.97-.37,31.44-.1,6.92,.18,12.6-1.81,17.55-6.67,9.56-9.39,10.51-8.34,19.62-.24,5.62,4.99,11.56,7.35,19,6.91,5.97-.35,11.97-.08,17.96-.06q19.48,.08,19.54,20.2c.05,11.97,.03,23.95,.3,35.91,.1,4.5,.98,4.86,8.32,5.48,.2,4.99,.56,9.97,.57,14.96,.04,45.95,.05,91.9,.01,137.85-.02,19.03-.08,19.07-19.2,19.11-21.99,.05-43.97,0-65.96,.01-7,0-13.95,.24-20.19-4.08-1.9-1.31-4.74-1.66-7.17-1.73-7.49-.21-14.99-.32-22.47,0-6.15,.27-8.54,2.15-8.57,8.12-.06,15.35-3.63,15.1-17.41,15.1-50.47-.01-100.93-.02-151.4,.01-4.49,0-9,.04-13.47,.47-3.89,.37-6.11,3.26-6.14,7.17-.03,3.92,2.18,6.87,6.11,7.13,6.47,.43,12.98,.24,19.46,.61,7.05,.4,8.93,2.18,9.33,9,.29,4.98,.3,10-.02,14.97-.41,6.57-2.5,8.56-9.5,8.89-7.48,.35-14.99,.02-22.48,.38-6.96,.33-8.92,2.26-9.25,9.09-.36,7.48-.03,14.99-.37,22.47-.35,7.69-2.21,9.54-10.09,9.8-8.98,.29-17.99,.3-26.98,.04-8.97-.26-10.72-1.89-10.98-10.52-.32-10.48-.12-20.97-.17-31.46-.02-3.99,.1-8-.21-11.98-.46-6.05-2.47-8.17-8.18-8.61-3.98-.31-7.99-.21-11.99-.21-24.98-.02-49.97,0-74.95-.01-3.5,0-7,.09-10.49-.09-8.77-.44-10.36-1.43-10.61-10.75-.32-12.27-3.49-13.37-14.58-13.34-8.99,.02-17.99-.22-26.98-.02-10.95,.25-14.99-7.01-10.62-15.52,3.13-6.09,4.46-10.87-.19-16.27-2.12-16.29-3.61-32.57,1.15-48.69,.28-.93,1.1-1.69,1.44-2.62,.9-2.43-.5-5.58-2.84-5.99-2.93-.51-5.93-.9-8.9-.91-47.97-.05-95.94-.12-143.91,.02-12.33,.04-13.41,1.42-13.73,14-.12,4.49-.03,8.99-.03,13.49,0,129.86,0,259.72,0,389.58,0,4.99,.11,10-.2,14.98-.38,6.13-2.41,8.57-7.96,8.84-22.06,1.07-22.15,.31-21.97-19.03,.03-3,.11-6,.04-8.99-.13-5.47,1.68-9.07,7.19-11.65,5.91-2.77,5.81-7.88-.36-10.89-5.6-2.73-6.86-6.63-6.84-11.94,.04-9.49,.1-18.98,0-28.47-.06-5.51,1.78-9.04,7.24-11.63,5.89-2.8,5.69-7.77-.52-10.82-4.89-2.4-6.63-5.58-6.65-10.45-.03-9.99,.07-19.98-.08-29.97-.08-5.61,1.75-9.71,7.47-11.42,.47-.14,.93-.4,1.31-.72,2.12-1.76,2.88-4.03,2.03-6.63-.66-2.02-2.21-3.44-4.35-3.58-4.97-.33-9.96-.61-14.94-.61-62.96-.04-125.92-.02-188.88-.04-4.49,0-9.01,.05-13.48-.3-5.19-.41-7.32-2.4-7.71-7.36-.4-4.97-.36-9.98-.36-14.97-.02-78.42-.16-156.83,.13-235.25,.05-13.58-1.93-26.87-3.55-40.21-.71-5.82-3.18-11.53-5.48-17.03-5.34-12.76-15.64-18.95-28.97-20.66-3.46-.44-6.98-.43-10.42-.97-2.69-.42-4.4-2.19-4.62-5.06-.21-2.78,1.1-4.82,3.39-6.17,1.27-.75,2.71-1.39,4.15-1.65,10.24-1.86,8.31-5.63,6.16-12.72-4.49-14.77-5.09-15.21-21.01-15.31-6.99-.05-13.99,.07-20.98,.13-4.49,.04-7.59,2.08-9.09,6.38-1.15,3.3-2.42,6.57-3.4,9.91-2.15,7.3-1.97,7.59,5.27,11.13,1.33,.65,2.78,1.12,3.99,1.94,1.78,1.21,2.47,3.19,2.34,5.22-.17,2.67-1.62,4.7-4.18,5.65-1.39,.51-2.9,.96-4.36,.97-9.99,.07-19.99,.25-29.96-.11-5.71-.21-7.7-2.54-7.92-8.78-.31-8.98-.04-17.98-.24-26.97-.15-6.71,.73-12.61,6.26-17.56,6.12-5.48,5.86-13.37,5.86-20.95,0-17.12-.29-17.68-17.51-17.69-17.76,0-19.18-.52-18.86-18.01,0-.5,0-1,0-1.5-.44-12.61-1.19-13.35-13.9-13.76-1.5-.05-3,.02-4.5-.03-13-.4-13.21-.61-14.14-13.51-.92-12.89-1.42-13.64-14.06-13.71-27.98-.17-55.96-.05-83.94-.04-1.5,0-3,.01-4.49,.17-5.93,.62-7.99,2.59-8.73,8.24-.13,.99-.2,2-.17,2.99,.51,16.32-3.46,15.91-16.36,15.87-23.62-.07-22.32-1.14-22.32,23.35,0,28.97,.08,57.94-.04,86.91-.06,14.32-.94,15.2-15.41,15.26-19.97,.09-39.94-.13-59.9-.22,1.86-.67,3.67-1.71,5.58-1.94,4.81-.58,7-3.15,7.01-7.88,0-4.48,.14-8.96,.14-13.43,0-112.47,.01-224.94-.01-337.41,0-5.47-.28-10.94-.43-16.4,.21-6.33,.47-12.67,.61-19,.15-6.83,.15-13.66,.25-20.5,.05-3.47,2.24-5.16,5.24-6.12,6.15,.81,12.15,.41,17.88-2.19,4.04-.3,8.08-.6,12.12-.9,6.13,.87,12.1,.4,17.82-2.15,4.05-.31,8.11-.61,12.16-.92,6.13,.93,12.08,.33,17.81-2.11l12.19-.97c4.2,.87,8.22,.69,11.8-2.03,4.21-5.25,2.4-11.46,2.41-17.22,.09-92.2,.04-184.39,0-276.59,0-8.97-.16-17.94-.25-26.91Z"/><path class="g" d="M5117.99,1837.46c.15,5.47,.43,10.94,.43,16.4,.03,112.47,.02,224.94,.01,337.41,0,4.48-.13,8.96-.14,13.43,0,4.73-2.2,7.3-7.01,7.88-1.91,.23-3.73,1.27-5.58,1.94-19.74,1.19-30.6,12.63-35.76,30.78-2.2,7.75-3.29,15.64-3.43,23.66-.33,19.97-.54,39.95-.78,59.92-.06,4.99,.1,9.99-.09,14.98-.32,8.59-1.37,9.87-9.36,9.97-19.24,.24-18.57,1.02-18.56-17.34,0-71.93,.03-143.85-.02-215.78-.01-21.63,1.53-19.19-19.29-19.38-7.99-.07-15.99,.09-23.98-.08-7.9-.17-8.85-1.03-9.09-8.43-.24-7.49,.03-14.99-.23-22.47-.25-7.36-1.76-9.15-8.7-9.25-15.99-.23-31.98-.25-47.97,0-7.93,.12-9.02,1.51-9.31,10.15-.25,7.48,0,14.99-.28,22.47-.22,5.97-1.46,7.37-6.95,7.46-10.99,.19-21.98,.05-32.98,.03-4.18,0-6.43-2.04-6.67-6.3-.26-4.53-3.32-5.66-7.19-5.67-10.49-.04-20.99-.09-31.48-.09-21.49-.01-42.97,.09-64.46-.05-7.07-.05-13.82,.94-20.6,3.06-29.06,9.08-58.22,17.88-87.33,26.8-2.86,.88-5.66,1.99-8.55,2.73-4.1,1.05-5.51,3.84-5.54,7.73-.03,4.49-.1,8.99-.1,13.48-.05,94.9-.1,189.8-.14,284.71-13.41,2.08-26.91,.98-40.37,.9-7.62-.05-9.14-2.02-9.6-10.16-.2-3.48-.11-6.99-.11-10.48,0-27.95,0-55.91-.02-83.86,0-3.99-.01-7.99-.35-11.96-.38-4.44-2.25-6.38-6.41-6.84-2.97-.33-5.98-.37-8.97-.37-29.96-.02-59.93-.02-89.89,0-2.49,0-5,0-7.48,.23-5.37,.49-7.29,2.16-7.67,7.26-.37,4.97-.33,9.97-.34,14.96-.06,21.46,.06,42.93-.18,64.39-.08,7.45-1.77,8.85-8.7,9.34-1.49,.11-2.99,.1-4.49,.1-49.94,0-99.88,0-149.81-.02-1.99,0-3.99-.11-5.98-.28-3.34-.28-5.59-1.98-6.24-5.34-.38-1.95-.55-3.95-.7-5.94-1.21-16.91-2.32-33.84-3.62-50.74-1.59-20.67-3.49-18.58-19.11-18.61-47.44-.07-94.88-.04-142.32,0-4.98,0-10.01,.1-14.94,.75-13.35,1.74-26.74,3.42-39.98,5.84-17.43,3.19-17.05,1.55-17.06,19.46-.02,36.44,0,72.88-.01,109.32,0,3.99,.1,8-.15,11.98-.4,6.33-1.97,8.29-8.09,8.3-17.95,.03-35.93,1.29-53.85-.85-.03-70.42-.07-140.85-.1-211.27,0-4.5,.04-8.99-.01-13.49q-.15-12.48-12.38-14.53c-4.62-.78-5.77-1.93-6.05-6.88-.23-3.98-.17-7.99-.17-11.98-.01-36.46-.01-72.92,0-109.38,0-15.97,.21-15.28-15.9-15.31-9.99-.01-19.99,.08-29.98-.14-5.62-.12-6.95-1.58-7.31-7.2-.28-4.48-.11-8.99-.41-13.47-.36-5.31-1.9-6.75-7.52-7.16-3.48-.25-6.99-.22-10.49-.23-56.96-.01-113.92,0-170.88,0-16.51,0-17.93-.88-17.6,17.16,.04,1.99-.1,4-.4,5.97-.41,2.74-2.01,4.68-4.89,4.7-11.98,.08-23.95,.08-35.93-.08-2.91-.04-4.34-2.29-4.52-5-.25-3.98-.28-7.98-.28-11.98-.01-69.42-.01-138.85,0-208.27,0-3.99,.07-7.99,.29-11.97,.11-1.98,.55-4.16,2.87-4.74,5.73-1.44,6.1-5.78,6.04-10.5-.07-4.49-.03-8.99-.03-13.48,0-4.24-.76-7.9-5.67-9.23-2.93-.79-3.26-3.49-3.36-5.99-.16-3.99-.14-7.99-.14-11.98-.01-25.47,0-50.94-.02-76.42,0-3.99-.14-7.99-.28-11.98-.1-2.81-1.61-4.73-4.29-5.34-3.39-.78-6.85-1.39-10.3-1.79-19.83-2.35-39.68-4.61-59.52-6.9-.9-8.91-2.09-17.8-2.62-26.73-.88-14.9-4.78-29.52-4.16-44.55,17.91-1.2,35.81-2.4,53.72-3.61,.99-.07,1.98-.27,2.97-.39,23.76-2.94,47.5-5.92,71.53-5.3,12.98,.34,26.16-.96,38.91,.84,16.96,2.39,33.86,1.9,50.8,2.39,5.48,.16,11.09-.11,16.41,.96,7.93,1.59,15.85,1.77,23.85,1.87,11.99,.14,24.14-.84,35.92,.84,13.46,1.92,26.87,2.55,40.31,2.09,14.1-.48,27.81,2.5,41.74,3.34,5.16,.31,7.24,2.52,7.56,7.58,.4,6.47,.43,12.97,.34,19.46-.22,17.49,1.18,18.21,18.93,17.87,1.49-.03,3-.17,4.47-.43,3.22-.57,5.49-2.34,6.15-5.66,.39-1.95,.39-3.98,.75-5.94,1.33-7.19,2.61-8.79,9.55-8.86,20.48-.22,40.96-.22,61.44,0,6.77,.08,7.92,1.65,9.36,9.08,2.16,11.13,2.45,11.42,13.11,11.82,2.99,.11,5.99,.04,8.99,.04,21.98,0,43.96,0,65.95,0,3,0,6-.06,8.99,.02,12.73,.34,13.87,1.41,14.21,13.57,.12,4.49,.03,8.99,.03,13.48-.02,174.78-.05,349.57-.06,524.35,0,4.99-.11,10,.21,14.97,.39,6.1,2.41,8.56,8.04,8.74,10.48,.34,20.98,.31,31.45,0,5.06-.15,7.36-2.5,7.76-7.38,.44-5.46,.41-10.97,.41-16.46,0-150.31-.03-300.63-.05-450.94,0-26.97-.02-53.93,0-80.9,0-3.99,.1-7.99,.38-11.97,.28-3.97,2.53-6.57,6.49-7.05,3.95-.48,7.96-.49,11.95-.63,5.99-.21,12.16,.5,17.93-.7,12.38-2.57,24.84-2.12,37.31-2.39,4.49-.1,9.14,.41,13.45-.56,12.35-2.79,24.83-2.17,37.3-2.48,3.99-.1,8.12,.22,11.94-.69,9.86-2.35,19.84-2.08,29.81-2.22,8.48-.12,16.95-.03,25.34-1.95,3.29-.75,7.06-.62,10.36,.15,7.9,1.83,15.88,1.6,23.85,1.79,6.99,.17,14.15-.53,20.93,.77,11.41,2.19,22.84,2.09,34.31,2.3,4.49,.09,9.13-.38,13.44,.59,11.85,2.66,23.83,2.17,35.8,2.43,4.49,.1,9.12-.22,13.43,.76,9.88,2.23,19.84,2.02,29.82,2.19,4.49,.08,9.01-.03,13.48,.35,5.81,.5,7.99,2.7,8.46,8.44,.32,3.97,.23,7.98,.23,11.98,.01,21.47-.01,42.95,0,64.42,0,3.99-.03,8,.33,11.97,.46,4.97,2.46,7.08,7.64,7.53,24.32,2.14,48.64,4.52,73,5.96,12.95,.77,25.85,1.26,38.77,2.83,10.34,1.26,12.02,3.71,12.03,13.01,0,3.5,.03,6.99,.03,10.49,0,31.46-.03,62.92,0,94.38q.02,20.3,20.99,20.34c74.94,.02,149.88,0,224.82,0,3.5,0,7,.09,10.49-.11,8.65-.5,10.63-2.18,10.78-10.83,.29-15.98,.1-31.96,.15-47.94,.01-3.99,.08-7.99,.36-11.97,.27-3.9,2.54-6.55,6.24-7.54,3.83-1.02,7.76-1.8,11.7-2.27,4.45-.53,8.99-.38,13.44-.9,14.35-1.67,28.68-3.52,43.02-5.3Z"/><path class="h" d="M3594.42,1624.81c-.62,15.03,3.29,29.65,4.16,44.55,.53,8.93,1.72,17.82,2.62,26.73-11.9-1.09-23.83-1.99-35.71-3.3-24.27-2.67-48.53-5.5-72.78-8.36-12.87-1.52-25.72-3.17-38.56-4.89-18.86-2.52-37.68-2.55-56.57-.22-24.24,2.98-48.52,5.6-72.77,8.47-12.87,1.52-25.7,3.3-38.57,4.87-10.89,1.33-21.78,2.58-32.69,3.74-20.82,2.21-41.65,4.31-62.46,6.54-2.45,.26-4.91,.88-7.24,1.7-3.04,1.07-5.02,3.39-5.34,6.62-.39,3.96-.53,7.96-.54,11.95-.05,25.97-.04,51.93-.02,77.9,0,7.07,.53,14.22-8.51,16.92-2.52,.76-3.27,3.65-3.36,6.22-.17,4.99-.14,9.98-.21,14.97-.07,4.94,1.51,8.72,6.66,10.4,3.88,1.27,5.08,4.53,5.22,8.25,.14,3.99,.19,7.99,.19,11.98,0,277.64,.01,555.28,0,832.92,0,19.81-.03,19.91-19.78,23.93-30.81,6.27-61.64,12.39-92.47,18.56-1.96,.39-3.95,.61-5.89,1.06-4.46,1.02-6.96,3.98-7.19,8.42-.34,6.48-.33,12.97-.38,19.46-.08,9.99,.13,19.98-.19,29.96-.24,7.6-2.33,9.43-10.05,10.01-2.49,.19-4.99,.14-7.49,.14-37.47,0-74.93,.06-112.4-.02-17-.04-17.47-.51-17.47-17.84-.03-153.8-.02-307.6-.02-461.4,0-4.99-.11-9.99-.05-14.98,.1-8.07-3.24-13.41-11.53-14.98,.12-26.95,.24-53.89,.36-80.84,.02-3.99,.11-7.99,.06-11.98-.07-5.13,2.05-8.53,7.19-9.89,6.27-1.66,12.51-3.44,18.75-5.2,20.48-5.75,19.14-3.97,18.74-25.17-.88-45.89-2.65-91.77-2.71-137.66-.1-72.83-2.12-145.67,1.84-218.5,2.22-40.84,4.73-81.62,9-122.3,.73-6.92,.47-13.94,.67-20.91,4.61-10.83,3.93-22.57,5.34-33.86,8.2-65.43,19-130.4,32.48-194.94,16.24-77.77,36.22-154.56,60.81-230.13,.62-1.9,1.1-3.85,1.82-5.71,1.7-4.37,1.35-7.71-3.83-9.37-2.14-.69-2.65-2.73-2.31-4.9,.39-2.43,2.32-3.12,4.28-3.47,2.92-.52,6.45-.11,8.08-3.03,2.41-4.35,4.32-9.01,4.46-14.14,.08-3.18-2.76-3.62-4.59-5.16-4.21-3.54-3.55-8.18,1.43-8.43,8.16-.4,10.89-5.19,13.28-11.79,12.27-33.8,25.62-67.18,40.49-99.94,15.71-34.59,32.81-68.46,52.93-100.73,15.89-25.5,33.25-49.86,55.13-70.72,9.45-9.01,19.63-16.94,31.31-22.93,18.25-9.35,36.32-9.36,54.55,.03,11.22,5.78,21.09,13.28,30.22,21.9,19.77,18.64,35.89,40.21,50.55,62.93,27.99,43.37,50.59,89.55,70.51,137.05,10.04,23.94,19.28,48.22,28.51,72.48,2.51,6.59,5.2,11.81,13.37,11.59,1.96-.05,3.78,1.34,3.99,3.69,.27,2.99-1.66,4.2-4.12,5.33-6.77,3.1-7.05,3.79-5.51,9.43,.13,.48,.28,.96,.42,1.44,1.77,5.95,3.77,11.53,11.74,11.12,2.03-.11,3.76,1.39,4.01,3.67,.24,2.12-.45,4.08-2.65,4.76-5.49,1.7-4.74,5.38-3.44,9.53,6.41,20.49,13,40.93,19.04,61.53,17.44,59.43,32.1,119.57,44.77,180.2,.71,3.39,.75,7,2.99,9.93,.37,3.46,.48,6.98,1.15,10.38,9.74,48.85,17.83,97.96,24.18,147.36,.31,2.42,1.37,4.74,2.08,7.11Z"/><path class="g" d="M6487.64,2184.41c-7.33-.62-8.22-.98-8.32-5.48-.27-11.97-.25-23.94-.3-35.91q-.08-20.11-19.54-20.2c-5.99-.02-12-.29-17.96,.06-7.44,.44-13.38-1.92-19-6.91-9.11-8.1-10.06-9.14-19.62,.24-4.95,4.86-10.64,6.85-17.55,6.67-10.47-.27-20.97-.21-31.44,.1-7.92,.24-9.46,1.85-9.64,10.01-.25,11.47-.07,22.95-.14,34.42-.02,3.99-.07,7.99-.42,11.95-.3,3.39-2.5,5.38-5.86,5.68-3.47,.31-6.97,.38-10.46,.39-15.47,.04-30.95,.02-46.42,.02-3,0-5.99-.07-8.98,.04-10.6,.38-11.76,1.41-11.92,12.39-.2,14.47-.06,28.94-.08,43.41,0,3.99,.1,7.99-.1,11.97-.42,8.22-1.83,10.01-9.59,10.06-27.95,.19-55.9,.19-83.85,.03-8.21-.05-9.86-1.68-10.05-9.58-.3-12.47-.06-24.94-.21-37.42-.05-3.96,.77-8.95-1.24-11.66-5.65-7.6-4.69-15.97-4.98-24.34-.04-1-.09-1.99-.21-2.98-.53-4.41-2.27-6.34-6.43-6.8-2.47-.27-4.98-.3-7.47-.3-9.48-.03-18.97-.11-28.45,0-13.55,.16-13.63,.31-14.14,14.59-.11,2.99-.07,6-.42,8.96-.51,4.28-2.37,6.47-6.7,6.58-11.46,.28-22.94,.32-34.41,.04-5.04-.12-6.7-2.26-7.11-7.76-.29-3.97-.24-7.98-.24-11.96-.02-25.94,.08-51.89-.06-77.83-.07-12.99-.64-13.53-13.53-13.63-18.97-.16-37.93,.06-56.9-.1-12.84-.11-13.3-.72-13.63-13.62-.11-4.49,.05-8.99-.3-13.46-.4-5.09-2.44-7.21-7.44-7.68-4.46-.41-8.97-.38-13.46-.4-25.11-.08-23.01,1.66-23.1-23.85-.03-8.98-.34-17.98,.09-26.94,.37-7.74-1.88-13.36-8.91-17.38-4.68-2.68-9.65-5.33-12.95-9.95,4.23-1.59,6.28-4.67,6.31-9.16,.05-7.49-.04-14.98,.25-22.46,.32-8.27,1.35-9.89,9.25-10.64,9.06-.87,11.78-1.71,11.77-13.16,0-3.99,.03-7.99,.03-11.98-.01-55.91-.03-111.82-.04-167.73,0-3.99-.11-7.99,.09-11.98,.45-8.91,2.03-10.63,10.52-11.05,5.48-.27,10.98-.07,16.48-.14,6.49-.09,12.99-.04,19.45-.46,4.17-.27,6.37-2.52,6.78-6.64,.44-4.46,.47-8.96,.47-13.45,.02-57.41,.02-114.82-.02-172.22-.01-16.43,.45-16.27,16.18-19.28,14.67-2.8,29.55-4.57,44.39-6.36,7.92-.95,16.04-1.13,23.88,.58,7.91,1.72,15.83,1.86,23.82,1.99,4.49,.07,9.13-.28,13.43,.72,9.87,2.29,19.84,1.79,29.8,2.34,13.92,.77,27.82,2.02,41.72,3.25,4.85,.43,7.02,2.72,7.41,7.77,.39,4.97,.33,9.97,.33,14.96-.03,125.8-.08,251.6-.11,377.39,0,4.99-.13,9.99,.16,14.97,.44,7.7,2.34,9.89,9.96,10.04,15.98,.31,31.96,.19,47.94,.19,10.49,0,20.98,.14,31.46-.21,7.02-.23,8.99-2.28,9.43-8.96,.32-4.97,.2-9.98,.2-14.97,0-112.82-.03-225.64-.04-338.46,0-4.49,.03-8.98,.07-13.48,.03-4.1,.61-8.02,4.34-10.59,4.3-2.96,4.6-7.41,4.59-11.99-.03-12.98-.07-25.96-.11-38.94,.11-5.99,.21-11.98,.32-17.97,1.93-.12,3.85-.24,5.78-.35,5.2,.06,9.42-2.02,8.81-7.6-1.53-13.85,5.82-22.66,14.3-32.52,21.48-24.95,46.02-46.8,68.64-70.57,1.36-1.42,2.97-2.66,4.64-3.7,1.82-1.14,3.96-1.02,5.62,.2,2.39,1.76,4.61,3.79,6.71,5.89,12.33,12.29,25.34,24.02,36.71,37.15,11.74,13.56,24.02,26.54,36.88,38.97,6.12,5.92,6.73,12.92,6.69,20.48,0,1.99,0,3.99,.01,5.98,.54,3.48,2.52,5.42,6.06,5.7,3.94,.16,7.89,.31,11.83,.47,.09,5.95,.18,11.91,.26,17.86-.04,12.97-.09,25.93-.11,38.9,0,4.56,.26,9.03,4.55,11.99,3.72,2.57,4.33,6.46,4.36,10.57,.03,4.49,.07,8.98,.07,13.47-.02,123.69,.05,247.38-.17,371.06-.03,14.54,3.08,28.62,4.4,42.95,.08,.89,.97,1.71,1.49,2.56-4.54,10.98-9.63,21.77-13.5,32.98-7.51,21.75-11.05,44.23-10.97,67.3,.12,32.28-.05,64.57-.1,96.85Z"/><path class="g" d="M1201.01,1846.72c0-44.6-.02-89.19,.02-133.79,0-5.44,.38-10.88,.58-16.32,5.5-.04,10.99-.14,16.49-.12,18.03,.06,19.76,.44,19.64-18.76-.08-12.57,1.32-13.58,13.74-13.93,3.5-.1,7-.03,10.49-.03,26.49,0,52.98,.07,79.47-.03,14.28-.05,14.28-.19,18.24-14.21q4.45-15.74,20.13-15.92c1-.01,2,0,3,0,76.97,0,153.93,0,230.9,0,3.5,0,7.01-.08,10.49,.19,6.75,.52,9.01,2.5,9.24,9.24,.36,10.48,.23,20.98,.24,31.47,.01,21.63-1.38,22.94,22.22,21.62,.34,7.46,.97,14.91,.97,22.37,.05,225.87,.04,451.73,.04,677.6,0,4.49,.04,8.97,.06,13.46-7.97,.23-15.94,.44-23.91,.69-4.76,.15-7.5-1.93-7.93-6.84-.32-3.6-2.59-5.12-6.02-5.15-7.98-.07-15.97-.14-23.95-.15-18.96-.02-37.93,.07-56.89-.03-5.41-.03-10.02,.41-10.29,7.45-.11,2.9-2.29,4.25-5.01,4.53-2.48,.25-4.98,.32-7.47,.44-3.69,.18-5.38,2.5-5.51,5.8-.27,6.48-.23,12.96-.31,19.45-.33,28.83,3.27,24.65-24.34,24.91-18.46,.18-36.93-.07-55.39-.12-.31-5.96-.87-11.92-.88-17.89-.08-40.87-.04-81.75-.04-122.62,0-3.49,.08-6.98-.06-10.47-.41-10.03-1.97-11.69-12.33-13.04-3.95-.51-7.96-.6-11.91-1.12-42.47-5.62-84.89-11.68-127.43-16.71-14.15-1.67-14.95-4.27-14.89-16.62,.02-2.99,0-5.98,0-8.97,0-25.42,.01-50.84-.02-76.26,0-3.98-.09-7.97-.35-11.95-.26-3.97-2.44-6.18-6.48-6.91-11.83-2.15-23.79-2.41-35.75-2.92-.15-6.48-.42-12.95-.43-19.43-.03-89.77,.02-179.55-.11-269.32,0-5.75,1.87-11.97-2.42-17.2-4.75-3.24-10.06-2.39-15.29-2.06l-.55-.29Z"/><path class="h" d="M4000.42,2474.96c17.92,2.14,35.9,.88,53.85,.85,6.12,0,7.69-1.97,8.09-8.3,.25-3.98,.15-7.98,.15-11.98,0-36.44,0-72.88,.01-109.32,0-17.91-.37-16.28,17.06-19.46,13.24-2.42,26.63-4.09,39.98-5.84,4.93-.64,9.95-.74,14.94-.75,47.44-.05,94.88-.08,142.32,0,15.62,.02,17.53-2.06,19.11,18.61,1.3,16.91,2.4,33.83,3.62,50.74,.14,1.99,.32,3.99,.7,5.94,.65,3.37,2.9,5.06,6.24,5.34,1.99,.17,3.99,.28,5.98,.28,49.94,.02,99.88,.02,149.81,.02,1.5,0,3,0,4.49-.1,6.93-.49,8.62-1.89,8.7-9.34,.24-21.46,.12-42.93,.18-64.39,.01-4.99-.03-9.99,.34-14.96,.38-5.1,2.3-6.76,7.67-7.26,2.48-.23,4.99-.23,7.48-.23,29.96-.01,59.93-.02,89.89,0,2.99,0,6,.04,8.97,.37,4.16,.46,6.03,2.4,6.41,6.84,.34,3.97,.35,7.97,.35,11.96,.03,27.95,.01,55.91,.02,83.86,0,3.49-.09,7,.11,10.48,.46,8.15,1.98,10.12,9.6,10.16,13.46,.08,26.95,1.18,40.37-.9,.09,3.99,.25,7.98,.25,11.97,.01,120.81,.02,241.62-.01,362.43,0,4.98-.1,9.98-.51,14.95-.27,3.32-2.49,5.4-5.8,5.9-2.46,.37-4.97,.5-7.46,.5-21.97,.03-43.95,.02-65.92,.01-1,0-2,0-2.99-.08-7.83-.59-9.88-2.3-10.14-9.86-.32-9.47-.07-18.97-.21-28.45-.21-14.44-.85-15.23-15.36-15.25-66.42-.08-132.85-.04-199.27-.04-38.46,0-76.91,.04-115.37-.02-17.34-.03-17.45-.2-17.57-17.56-.08-11.98,.1-23.97-.22-35.94-.19-7.02-1.95-8.69-9.03-9.29-14.4-1.22-28.72-2.99-43.23-3.47-19.89-.66-39.72-3.15-59.57-4.87-.99-.09-1.99-.36-2.97-.32-20.52,.75-40.73-3.85-61.22-3.48-8.07,.15-15.88-1.47-23.72-3-3.99-.78-6.11-3.22-6.43-7.14-.28-3.48-.35-6.98-.35-10.47-.02-61.4-.03-122.81,.02-184.21,0-4.98,.43-9.97,.66-14.95Z"/><path class="i" d="M6479.46,1471.76c0-1.99,0-3.99-.01-5.98,8.2-2.52,16.59-3.06,25.14-3.06,213.72,.07,427.45,.06,641.17,.06,3,0,6-.08,8.99,.07,9.5,.46,10.67,1.58,10.01,11.83-.3,4.66,.79,8.89,1.95,13.2,.72,2.66,2.83,3.97,5.21,4.94,0,1.96,0,3.92,0,5.87-3.88,2-7.77,4-11.65,6.01-3.33-2.73-7.33-2.9-11.36-2.9-20.99,0-41.98-.01-62.96,.02-1.99,0-4,.14-5.97,.44-3.96,.6-6.29,3-6.56,6.98-.31,4.48-.41,8.98-.41,13.46-.02,30.47,0,60.94,0,91.41,0,3.5,.09,7-.06,10.49-.44,10.19-1.96,11.63-12.72,11.99-5.99,.2-12,0-17.97,.39-5.05,.34-7.16,2.55-7.66,7.49-.35,3.47-.34,6.98-.34,10.47,.05,155.84,.12,311.69,.19,467.53-4.97,.06-9.94,.36-14.9,.14-28.87-1.26-57.75-2.55-86.61-4.03-13.22-.68-13.46-.88-13.32-13.71,.24-22.5-1.27-44.82-6.62-66.73-10.58-43.37-33.05-79.68-65.79-109.81-3.65-3.36-7.2-6.83-10.79-10.25,.12-1.99,.1-4.01,.39-5.97,3.37-22.35,2.91-44.65,.32-67.08-1.48-12.86-1.58-25.96,.42-38.83,1.08-6.96,1.48-13.87,1.48-20.86,.02-57.91,.04-115.82,.06-173.73,0-3,.07-6-.06-8.99-.49-11.01-1.47-12.01-13.13-13.82-.98-.15-2-.1-2.98-.29-5.02-.97-6.75-2.72-7.19-8.02-.33-3.97-.27-7.98-.28-11.97-.03-15.98,.14-31.95-.07-47.93-.16-11.64-2.45-13.99-13.55-15.6-10.36-1.5-20.79-2.64-31.04-4.69-10.45-2.09-21.04-2.59-31.29-.86-23.23,3.93-46.92,.51-70.04,5.16-19.04-1.31-37.76,2.93-56.71,3.26-7.78,.14-9.93,2.28-10.07,9.9-.31,16.47-.14,32.95-.2,49.42-.02,4.49-.07,8.98-.27,13.47-.18,3.83-1.97,6.36-5.87,7.67-11.77,3.95-11.74,4.05-11.92,16.23-.03,2,0,3.99,0,5.99,.02,92.86,.03,185.72,.08,278.57,0,5.99,.29,11.97,.44,17.96-1.86,1.62-3.59,3.43-5.6,4.85-26.15,18.36-47.05,41.5-63.1,69.08-1.25,2.15-2.67,4.2-4.01,6.3-.51-.85-1.4-1.66-1.49-2.55-1.31-14.33-4.42-28.41-4.4-42.95,.21-123.69,.15-247.38,.17-371.06,0-4.49-.04-8.98-.07-13.47-.03-4.11-.64-8-4.36-10.57-4.29-2.96-4.56-7.43-4.55-11.99,.02-12.97,.07-25.93,.11-38.9,3.5-1.28,5.55-3.75,5.57-7.49,.02-3.69,1.36-7.78-1.98-10.71-.67-.59-2.54,.19-3.86,.34-3.94-.16-7.89-.31-11.83-.46-.84-3.15-2.88-5.03-6.06-5.7Z"/><path class="g" d="M2946.91,1672.61c-.2,6.97,.06,13.99-.67,20.91-4.27,40.68-6.78,81.46-9,122.3-3.96,72.83-1.94,145.67-1.84,218.5,.06,45.89,1.84,91.77,2.71,137.66,.4,21.2,1.75,19.43-18.74,25.17-6.24,1.75-12.48,3.53-18.75,5.2-5.14,1.37-7.26,4.76-7.19,9.89,.06,3.99-.04,7.98-.06,11.98-.12,26.95-.24,53.89-.36,80.84-8.87-1.27-17.76-2.44-26.61-3.87-3.81-.61-6.25-2.88-6.29-7.08-.05-4.99-.16-9.98-.16-14.97,0-141.74,.02-283.48-.04-425.22-.01-22.98,2.48-20.94-20.04-22.91-35.79-3.13-71.49-7.23-107.29-10.33-12.89-1.12-25.93-.53-38.91-.69-3.49-.05-6.99,.11-10.48-.03-5.95-.25-12.76,1.98-17.62-1.43-5.49-3.85-2.08-11.16-3.04-16.88-.74-4.43-1.86-5.92-6.87-5.96-19.47-.14-38.94-.07-58.41-.03-3.19,0-5.92,.99-6.73,4.57-.65,2.88-2.56,4.12-5.32,4.2-4.49,.14-8.98,.24-13.47,.24-68.4,.01-136.81,0-205.21,.01-3.99,0-7.99,.16-11.98,0-4.83-.2-8.81,1.12-11.67,5.24-1.14,1.63-2.66,2.99-3.81,4.62-2.85,4.04-6.69,5.51-11.57,5.46-23.46-.26-46.92-.36-70.37-.51,.1-38.99,.21-77.99,.31-116.98,13.99,.04,27.98,.05,41.96,.12,3.49,.02,7.01,.05,10.46,.45,4.09,.48,6.18,2.63,6.67,6.81,.4,3.46,.49,6.97,.42,10.46-.35,17.43,1.45,34.96-2.4,52.24-.21,.96-.13,1.99-.15,2.99-.27,11.62,1.72,13.69,13.75,14,4.49,.12,9-.1,13.49,.05,7.48,.26,14.04-.41,15.44-9.92,.48-3.24,3.59-4.64,6.8-4.83,3.98-.23,7.98-.32,11.97-.33,20.98-.03,41.96,0,62.94-.02,3.5,0,7.01,.08,10.48-.23,5.73-.5,8.23-2.71,8.46-8.44,.38-9.47,.22-18.97,.29-28.45,.04-5.49-.11-11,.21-16.47,.37-6.26,2.13-8.46,7.8-9.06,12.38-1.32,24.62-4.08,37.22-3.35,6.48,.38,12.99,.02,19.33-1.73,1.44-.4,2.96-.78,4.42-.73,18.52,.68,36.78-2.85,55.21-3.41,7.49-.23,14.88-1.01,22.33-1.89,18.88-2.21,37.95-2.08,56.81-.14,9.45,.97,18.84,1.85,28.32,1.91,9.99,.07,19.98,.08,29.97,.16,3.5,.03,7.11-.38,10.46,.35,16.3,3.55,32.82,2.23,49.26,2.57,10.47,.22,20.86,.35,31.32,2.1,8.77,1.47,17.93,.61,26.91,.86,15.44,.44,30.87-.51,46.3,2.3,8.71,1.59,17.93,.7,26.91,.43,6.53-.2,8.5-2.5,8.92-9.51,.32-5.48,.05-10.98,.24-16.47,.39-11.2,1.75-12.5,13.46-12.82,4.49-.12,8.99,.04,13.49,.08Z"/><path class="g" d="M6584.93,1907.06c-.16-5.99-.44-11.97-.44-17.96-.05-92.86-.06-185.72-.08-278.57,0-2-.02-3.99,0-5.99,.19-12.18,.16-12.28,11.92-16.23,3.9-1.31,5.69-3.84,5.87-7.67,.21-4.48,.26-8.98,.27-13.47,.06-16.47-.11-32.95,.2-49.42,.14-7.62,2.3-9.76,10.07-9.9,18.96-.33,37.68-4.57,56.71-3.26,23.12-4.65,46.81-1.24,70.04-5.16,10.25-1.73,20.84-1.23,31.29,.86,10.25,2.05,20.68,3.2,31.04,4.69,11.1,1.6,13.4,3.96,13.55,15.6,.21,15.97,.04,31.95,.07,47.93,0,3.99-.06,8,.28,11.97,.45,5.3,2.17,7.05,7.19,8.02,.98,.19,1.99,.14,2.98,.29,11.65,1.81,12.63,2.81,13.13,13.82,.13,2.99,.06,5.99,.06,8.99-.02,57.91-.04,115.82-.06,173.73,0,6.99-.4,13.9-1.48,20.86-2,12.87-1.9,25.97-.42,38.83,2.59,22.43,3.05,44.73-.32,67.08-.3,1.97-.27,3.98-.39,5.97-15.98-10.09-31.45-21.08-49.1-28.26-3.63-1.48-5.77-4.03-5.3-7.99,.83-6.93-3.24-11.04-7.84-15.14-16-14.27-31.88-28.68-47.86-42.97-3.79-3.38-7.39-6.67-7.09-12.41,.28-5.39-3.3-6.17-7.74-6.72-7.12-.88-7.36-1.37-7.59-8.16-.2-5.98-.08-11.96-.24-17.94-.04-1.44-.61-2.87-.96-4.3-.29-1.19-1.11-1.76-2.28-1.35-.8,.28-1.9,.74-2.16,1.4-2.08,5.26-.91,10.81-1.21,16.24-.16,2.98-.04,5.99-.37,8.95-.15,1.36-.92,3.7-1.64,3.8-8.48,1.11-6.86,8.29-8.9,13.53-1.17,2.99-4.28,5.38-6.88,7.63-15.09,13.04-30.2,26.06-45.48,38.87-6.6,5.53-13.2,10.7-12.03,20.75,.39,3.3-2.09,5.39-4.92,6.83-10.64,5.41-21.27,10.84-31.91,16.25Z"/><path class="h" d="M1219.81,2155.02c11.95,.51,23.92,.77,35.75,2.92,4.04,.74,6.22,2.94,6.48,6.91,.26,3.97,.35,7.96,.35,11.95,.03,25.42,.02,50.84,.02,76.26,0,2.99,.02,5.98,0,8.97-.06,12.35,.74,14.95,14.89,16.62,42.54,5.03,84.96,11.1,127.43,16.71,3.95,.52,7.96,.61,11.91,1.12,10.37,1.35,11.92,3,12.33,13.04,.14,3.48,.06,6.98,.06,10.47,0,40.87-.04,81.75,.04,122.62,.01,5.96,.57,11.92,.88,17.89-45.93,.11-91.86,.21-137.79,.33-4.49,.01-9-.04-13.46,.33-4.86,.41-6.98,2.62-7.4,7.72-.37,4.46-.32,8.97-.33,13.46-.02,41.42,.01,82.85-.03,124.27-.02,18.91-.08,18.91-19.04,19.18-1,.01-2,.02-3,0-11.78-.08-14.47,1.21-14.39,13.29,.01,1.97-.29,3.99-.8,5.89-.91,3.44-3.66,4.56-6.87,4.48-3.25-.08-6.05-1.47-6.51-4.94-.59-4.43-.77-8.93-.78-13.4-.06-37.93-.03-75.86-.03-113.79,0-114.29,0-228.58,.01-342.86,0-6.49,.18-12.97,.27-19.46Z"/><path class="h" d="M1201.57,1847.01c5.23-.33,10.54-1.18,15.29,2.06-5.27,.56-10.57,1.42-15.29-2.06Z"/><path class="e" d="M538.95,1165.33c-1.71,6.37-1.03,12.88-1.03,19.33-.02,126.04,.04,252.09,0,378.13,0,6.45-.59,12.9-.9,19.36-16.07,2.49-31.77-1.66-47.63-2.84-4.85-.36-6.82-2.73-7.24-7.94-.36-4.46-.27-8.97-.29-13.46-.07-12.47,.12-24.95-.21-37.42-.18-7.05-2.32-9.34-8.86-9.5-9.97-.26-20.18-1.19-29.88,.49-14.44,2.48-28.83,1.93-43.26,2.33-6.48,.18-13.11-.31-19.39,.95-8.93,1.78-17.83,1.85-26.81,1.98-9.48,.14-19.13-.69-28.39,.82-10.94,1.78-21.82,2.33-32.78,2.13-14.51-.27-28.88,.7-43.2,3.01-7.99,1.29-9.52,2.52-9.96,10.2-.31,5.47,0,10.98-.35,16.45-.45,7.06-3.5,9.51-10.79,8.99-2.47-.18-4.9-.91-7.37-1.2-4.45-.53-8.9-1.16-13.37-1.3-8.47-.28-16.86-.49-25.29-2.14-11.73-2.3-14.47,.27-14.9,11.87-.13,3.49-.05,6.98-.05,10.48,0,34.93,.01,69.85,0,104.78,0,3.99,.11,8-.18,11.97-.53,7.4-2.52,9.5-10.39,9.65-14.47,.29-28.95,.27-43.42,.12-13.85-.14-14.95-1.3-15.06-15.75-.14-18.46-.23-36.92,.03-55.38,.11-7.94-2.54-12.7-10.35-15.95-22.56-9.37-44.72-19.71-67.14-29.43-5.92-2.56-12.21-4.25-18.34-6.34,0-218.47,0-436.95,0-655.42,0-63.35,.08-126.69,.13-190.04,7.49,.05,14.99,.13,22.48,.13,246.79,0,493.58,0,740.36,0,5,0,10-.14,14.98,.09,10.3,.47,12.17,2.01,13.63,11.96,2.17,14.77,4.19,29.57,6.02,44.39,.52,4.22,1.26,7.9,5.76,9.52,.17,4.48,.47,8.96,.47,13.43,.05,49.84,.04,99.68,.06,149.52,0,17.79,.55,17.05-17.26,17.09-11.47,.03-22.93,.09-34.4,.13-3.95,.01-6.85,1.62-7.56,5.7-.85,4.95-3.98,6.41-8.49,6.42-8.97,.02-17.95-.02-26.92,.29-6.29,.22-7.96,1.68-7.9,8.27,.15,17.52-.53,16.82-19.07,18.12-27.84,1.95-55.64,4.4-83.46,6.68-2.48,.2-4.93,.73-7.38,1.17-3.99,.71-6.06,3.14-6.16,7.18-.1,3.99-.18,7.97-.18,11.96,0,33.39,.05,66.79-.02,100.18-.01,5.46-.53,10.92-.81,16.38-11.16,0-22.32-.06-33.47,0-4.81,.02-9.77-.56-14.07,2.45Z"/><path class="e" d="M1182.33,871.81c-.29-6.44-.62-12.87-.87-19.31-.15-3.97,0-7.95-.3-11.91-.34-4.45-2.18-6.38-6.35-6.72-3.46-.29-6.95-.26-10.43-.27-12.92-.03-25.84,.01-38.76-.03-3.47-.01-6.96-.05-10.42-.38-2.68-.25-4.71-1.82-4.94-4.66-.36-4.44-.58-8.91-.59-13.36-.05-26.82,.05-53.64-.06-80.46-.02-5.43-.68-10.86-1.04-16.29-3.58-2.05-7.53-2.18-11.5-2.17-24.2,.09-48.4,.19-72.6,.29-.68-1.81-1.95-3.62-1.94-5.44,.05-37.16,.25-74.33,.41-111.49,61.47-.03,122.94-.09,184.41-.1,172.92-.01,345.83,.02,518.75-.05,12.01,0,23.96,.07,35.68,3.11,.19,17.74,.53,35.49,.52,53.23,0,19.22-.32,38.45-.5,57.67-4.96,2.65-10.34,2.79-15.79,2.77-8.35-.02-16.71,.06-25.06,.09-2.43-12.27-1.05-24.68-1.12-37.01-.12-22.29,.35-21.38-19.41-11.31-6.18,3.15-12.35,6.31-18.6,9.31-4.5,2.16-6.6,5.45-6.63,10.52-.07,9.39-.51,18.78-.8,28.17-5.72,.58-11.82-1.13-16.96,2.88-.26,6.97-.74,13.93-.74,20.9,0,150.14,.05,300.28,.03,450.42,0,6.95,.79,13.98-1.12,20.84-151.34-.03-302.67-.06-454.01-.08-.26-6.47-.76-12.94-.76-19.4-.02-99.31,.05-198.62-.02-297.93,0-6.36,1.47-13.01-2.17-19.01-.82-1.01-1.78-1.2-2.9-.5-3.07,0-6.15,0-9.22,0-1.4-.77-2.8-1.55-4.21-2.32Z"/><path class="i" d="M3594.42,1624.81c-.71-2.37-1.77-4.69-2.08-7.11-6.35-49.4-14.44-98.51-24.18-147.36-.68-3.4-.78-6.92-1.15-10.38,7.49-.06,14.99-.18,22.48-.18,539.68,0,1079.37,0,1619.05,0,6.5,0,12.99,.04,19.49,.06,.09,8.97,.25,17.94,.25,26.91,.05,92.2,.1,184.39,0,276.59,0,5.77,1.8,11.97-2.41,17.22-4.12-.38-8.19-.53-11.81,2.03-4.06,.32-8.12,.65-12.18,.97-6.07-.44-12.19-1.26-17.81,2.11-4.05,.31-8.11,.61-12.16,.92-6.08-.46-12.21-1.27-17.82,2.15-4.04,.3-8.08,.6-12.12,.9-6.11-.53-12.25-1.27-17.88,2.19-3,.97-5.2,2.65-5.24,6.12-.1,6.83-.11,13.67-.25,20.5-.14,6.34-.4,12.67-.61,19-14.34,1.78-28.67,3.62-43.02,5.3-4.46,.52-8.99,.37-13.44,.9-3.94,.47-7.87,1.25-11.7,2.27-3.7,.99-5.97,3.64-6.24,7.54-.28,3.98-.35,7.98-.36,11.97-.06,15.98,.13,31.96-.15,47.94-.15,8.65-2.13,10.33-10.78,10.83-3.49,.2-6.99,.11-10.49,.11-74.94,0-149.88,.01-224.82,0q-20.94,0-20.99-20.34c-.02-31.46,0-62.92,0-94.38,0-3.5-.02-6.99-.03-10.49-.01-9.3-1.69-11.75-12.03-13.01-12.92-1.57-25.82-2.07-38.77-2.83-24.37-1.44-48.68-3.82-73-5.96-5.18-.45-7.18-2.57-7.64-7.53-.36-3.97-.33-7.98-.33-11.97-.02-21.47,0-42.95,0-64.42,0-3.99,.09-8-.23-11.98-.46-5.74-2.64-7.95-8.46-8.44-4.47-.38-8.98-.28-13.48-.35-9.98-.17-19.94,.04-29.82-2.19-4.32-.97-8.94-.66-13.43-.76-11.97-.26-23.95,.23-35.8-2.43-4.31-.97-8.95-.51-13.44-.59-11.47-.22-22.9-.11-34.31-2.3-6.77-1.3-13.94-.6-20.93-.77-7.98-.19-15.95,.05-23.85-1.79-3.31-.77-7.07-.9-10.36-.15-8.39,1.92-16.86,1.82-25.34,1.95-9.98,.15-19.95-.12-29.81,2.22-3.82,.91-7.95,.6-11.94,.69-12.46,.3-24.95-.31-37.3,2.48-4.31,.97-8.95,.47-13.45,.56-12.46,.27-24.92-.18-37.31,2.39-5.78,1.2-11.95,.49-17.93,.7-3.99,.14-8,.15-11.95,.63-3.95,.48-6.21,3.08-6.49,7.05-.28,3.98-.38,7.98-.38,11.97-.03,26.97,0,53.93,0,80.9,.02,150.31,.04,300.63,.05,450.94,0,5.49,.03,11-.41,16.46-.39,4.88-2.69,7.24-7.76,7.38-10.48,.3-20.98,.33-31.45,0-5.64-.18-7.65-2.64-8.04-8.74-.32-4.98-.21-9.98-.21-14.97,.01-174.78,.04-349.57,.06-524.35,0-4.49,.09-8.99-.03-13.48-.34-12.16-1.47-13.22-14.21-13.57-3-.08-5.99-.02-8.99-.02-21.98,0-43.96,0-65.95,0-3,0-6,.07-8.99-.04-10.66-.4-10.95-.69-13.11-11.82-1.44-7.44-2.6-9.01-9.36-9.08-20.48-.23-40.96-.23-61.44,0-6.94,.08-8.22,1.67-9.55,8.86-.36,1.96-.36,3.98-.75,5.94-.66,3.32-2.92,5.09-6.15,5.66-1.47,.26-2.98,.4-4.47,.43-17.75,.34-19.15-.38-18.93-17.87,.08-6.49,.06-12.99-.34-19.46-.32-5.05-2.4-7.27-7.56-7.58-13.93-.83-27.64-3.82-41.74-3.34-13.44,.46-26.85-.17-40.31-2.09-11.77-1.68-23.93-.7-35.92-.84-7.99-.09-15.92-.27-23.85-1.87-5.32-1.07-10.93-.8-16.41-.96-16.94-.49-33.85,0-50.8-2.39-12.76-1.8-25.93-.5-38.91-.84-24.03-.62-47.77,2.36-71.53,5.3-.99,.12-1.98,.32-2.97,.39-17.9,1.21-35.81,2.41-53.72,3.61Z"/><path class="i" d="M6290.44,1477.47c-1.93,.12-3.85,.24-5.78,.35-8.12,6.25-8.2,11.05-.32,17.97,.04,12.98,.09,25.96,.11,38.94,0,4.58-.3,9.03-4.59,11.99-3.73,2.57-4.31,6.49-4.34,10.59-.04,4.49-.07,8.98-.07,13.48,.01,112.82,.03,225.64,.04,338.46,0,4.99,.12,10-.2,14.97-.44,6.69-2.4,8.73-9.43,8.96-10.48,.34-20.97,.21-31.46,.21-15.98,0-31.96,.12-47.94-.19-7.62-.15-9.53-2.34-9.96-10.04-.28-4.98-.16-9.98-.16-14.97,.04-125.8,.08-251.6,.11-377.39,0-4.99,.06-9.99-.33-14.96-.39-5.05-2.56-7.34-7.41-7.77-13.89-1.23-27.79-2.48-41.72-3.25-9.95-.55-19.93-.05-29.8-2.34-4.3-1-8.94-.64-13.43-.72-7.99-.13-15.91-.27-23.82-1.99-7.84-1.7-15.95-1.53-23.88-.58-14.84,1.79-29.72,3.56-44.39,6.36-15.73,3.01-16.19,2.84-16.18,19.28,.04,57.41,.04,114.82,.02,172.22,0,4.49-.03,8.99-.47,13.45-.41,4.12-2.61,6.37-6.78,6.64-6.47,.42-12.97,.37-19.45,.46-5.49,.08-11-.13-16.48,.14-8.49,.42-10.07,2.14-10.52,11.05-.2,3.98-.09,7.99-.09,11.98,.01,55.91,.03,111.82,.04,167.73,0,3.99-.03,7.99-.03,11.98,0,11.45-2.72,12.29-11.77,13.16-7.89,.76-8.93,2.37-9.25,10.64-.29,7.48-.19,14.97-.25,22.46-.03,4.49-2.08,7.57-6.31,9.16-16-8.33-30.24-19.37-45.21-29.3-9.57-6.34-18.88-13.09-28.51-19.32-5.09-3.29-7.73-7.28-7.4-13.53,.36-6.97,.06-13.97,.06-20.96,0-32.95,.07-65.89-.02-98.84-.04-13.46-.19-13.44-13.14-13.75-5.48-.13-10.97-.39-16.45-.59-1.39-.75-2.79-1.49-4.19-2.24-.33-4.97-.93-9.93-.93-14.9-.03-96.39,0-192.79,.08-289.18,0-4.48,.45-8.96,.69-13.44,163.83-.03,327.66-.05,491.49-.07,3.49,0,7.03-.13,10.47,.32,8.76,1.13,11.37,5.04,9.98,14.45-.15,.99-.43,1.95-.65,2.92Z"/><path class="d" d="M2137.51,890.39c-1.02,.61-2.03,1.23-3.05,1.84,1.02-.61,2.03-1.23,3.05-1.84Z"/><path class="e" d="M7160.26,1504.69c3.89-2,7.77-4,11.65-6.01,.09,41.45,.19,82.91,.25,124.36,0,3.46,.31,7.03-1.64,10.19-1.18,1.9-3.09,2.67-5.11,2.24-1.32-.28-2.76-1.22-3.58-2.29-.85-1.11-1.28-2.71-1.42-4.14-.29-2.98-.35-5.98-.35-8.97,.05-38.46,.12-76.92,.19-115.38Z"/><path class="g" d="M2.18,1579.71c6.12,2.09,12.42,3.77,18.34,6.34,22.42,9.72,44.58,20.06,67.14,29.43,7.81,3.24,10.47,8.01,10.35,15.95-.27,18.46-.17,36.92-.03,55.38,.11,14.45,1.21,15.61,15.06,15.75,14.47,.15,28.95,.17,43.42-.12,7.87-.16,9.86-2.25,10.39-9.65,.29-3.97,.17-7.98,.18-11.97,0-34.93,0-69.85,0-104.78,0-3.49-.08-6.99,.05-10.48,.43-11.6,3.17-14.17,14.9-11.87,8.43,1.65,16.82,1.86,25.29,2.14,4.47,.15,8.92,.78,13.37,1.3,2.47,.29,4.9,1.02,7.37,1.2,7.29,.52,10.33-1.93,10.79-8.99,.35-5.47,.04-10.98,.35-16.45,.44-7.68,1.97-8.91,9.96-10.2,14.32-2.31,28.69-3.28,43.2-3.01,10.96,.2,21.84-.35,32.78-2.13,9.26-1.51,18.91-.68,28.39-.82,8.97-.13,17.88-.2,26.81-1.98,6.28-1.25,12.91-.77,19.39-.95,14.43-.41,28.83,.15,43.26-2.33,9.71-1.67,19.91-.74,29.88-.49,6.55,.17,8.68,2.46,8.86,9.5,.33,12.47,.14,24.94,.21,37.42,.02,4.49-.07,8.99,.29,13.46,.42,5.21,2.4,7.58,7.24,7.94,15.86,1.19,31.55,5.34,47.63,2.84,.37,5.96,1.07,11.92,1.07,17.89,.06,182.74,.05,365.47,.04,548.21,0,3.49-.19,6.99-.07,10.48,.2,6-2.97,9.15-8.44,10.65-10.6,2.9-21.17,5.87-31.76,8.79-2.41,.66-4.88,1.12-7.24,1.9-7.52,2.47-8.78,3.81-8.91,11.71-.24,13.98-.1,27.96-.13,41.94,0,3,.07,5.99-.04,8.99-.38,10.12-1.41,11.4-11.15,11.53-15.98,.21-31.97,.11-47.95,.07-6.99-.02-13.99,0-20.96-.36-4.4-.23-6.23-2.15-6.55-6.6-.36-4.97-.36-9.97-.36-14.96-.02-116.33,0-232.66-.02-349,0-23.86,1.38-22.02-21.72-22.09-14.48-.05-28.97,.11-43.45-.16-8-.15-9.51-1.71-9.65-9.94-.25-15.47-.11-30.95-.15-46.43-.01-4.49-.04-8.99-.19-13.48-.05-1.47-.39-2.97-.88-4.36-.31-.86-1.15-2.17-1.78-2.19-10.11-.33-8.85-16.15-20.26-14.76-2.41,.29-4.94-.66-7.43-.77-57.87-2.43-115.74-6.45-173.66-2.97-28.44,1.71-56.88,1.98-85.33,2.8-9.47,.27-18.93,.99-28.39,1.51,.13-16.4,.35-32.8,.38-49.2,.08-47.22,.09-94.44,.13-141.66Z"/><path class="i" d="M1201.6,1210.98c151.34,.03,302.67,.06,454.01,.08,.32,5.46,.92,10.93,.92,16.39,.09,150.74,.12,301.49,.12,452.23,0,5.47-.49,10.95-.75,16.42-23.6,1.32-22.21,.01-22.22-21.62,0-10.49,.13-20.99-.24-31.47-.23-6.74-2.49-8.72-9.24-9.24-3.48-.27-6.99-.18-10.49-.19-76.97,0-153.93,0-230.9,0-1,0-2,0-3,0q-15.68,.18-20.13,15.92c-3.97,14.03-3.96,14.16-18.24,14.21-26.49,.1-52.98,.03-79.47,.03-3.5,0-7-.07-10.49,.03-12.42,.36-13.82,1.36-13.74,13.93,.12,19.2-1.61,18.83-19.64,18.76-5.5-.02-10.99,.08-16.49,.12-.28-5.96-.8-11.92-.8-17.88,.01-150.95,.08-301.9,.17-452.84,0-4.97,.4-9.94,.62-14.91Z"/><path class="d" d="M1720.97,716.34c8.35-.04,16.71-.12,25.06-.09,5.44,.02,10.83-.12,15.79-2.77-.58,1.31-.99,3.65-1.75,3.77-13.06,2-26.16,3.43-39.09-.9Z"/><path class="g" d="M1657.44,718.91c5.13-4.02,11.24-2.3,16.96-2.88-1.53,2.37-3.9,2.93-6.47,2.94-3.49,.03-6.99-.04-10.48-.06Z"/><path class="d" d="M1024.48,716.54c24.2-.1,48.4-.19,72.6-.29,3.97-.02,7.92,.11,11.5,2.17-24.73,.11-49.45,.24-74.18,.32-3.44,.01-6.97,.16-9.91-2.19Z"/><path class="g" d="M538.95,1165.33c4.31-3.01,9.26-2.43,14.07-2.45,11.16-.06,22.32,0,33.47,0-3.05,3.33-7.13,2.71-10.96,2.71-12.2,0-24.39-.16-36.59-.26Z"/><path class="g" d="M1182.33,871.81c1.4,.77,2.81,1.55,4.21,2.32-2.18,.63-3.78,.21-4.21-2.32Z"/><path class="g" d="M1195.76,874.14c1.12-.71,2.08-.51,2.9,.5-1.02,.14-1.98-.03-2.9-.5Z"/><path class="g" d="M5154.1,1788.75c5.62-3.42,11.74-2.61,17.82-2.15-5.72,2.55-11.69,3.03-17.82,2.15Z"/><path class="g" d="M5124.1,1791.84c5.63-3.45,11.77-2.72,17.88-2.19-5.73,2.6-11.73,2.99-17.88,2.19Z"/><path class="g" d="M5184.08,1785.68c5.62-3.37,11.74-2.56,17.81-2.11-5.73,2.44-11.68,3.04-17.81,2.11Z"/><path class="g" d="M5214.07,1782.6c3.61-2.56,7.69-2.41,11.81-2.03-3.58,2.73-7.6,2.9-11.81,2.03Z"/><path class="e" d="M5779.31,1777.37c1.4,.75,2.79,1.49,4.19,2.24-2.06,.49-3.77,.34-4.19-2.24Z"/><path class="e" d="M6497.35,1477.93c1.32-.15,3.18-.93,3.86-.34,3.34,2.93,2,7.02,1.98,10.71-.03,3.75-2.07,6.21-5.57,7.49-.09-5.95-.17-11.91-.26-17.86Z"/><path class="e" d="M6284.34,1495.79c-7.88-6.91-7.8-11.71,.32-17.97-.1,5.99-.21,11.98-.32,17.97Z"/><path class="e" d="M6479.46,1471.76c3.18,.67,5.22,2.55,6.06,5.7-3.54-.28-5.53-2.23-6.06-5.7Z"/></g></g></g></svg>